<?xml version="1.0" standalone="no"?>
<!DOCTYPE svg PUBLIC "-//W3C//DTD SVG 20010904//EN"
 "http://www.w3.org/TR/2001/REC-SVG-20010904/DTD/svg10.dtd">
<svg version="1.0" xmlns="http://www.w3.org/2000/svg"
 width="460.000000pt" height="460.000000pt" viewBox="0 0 460.000000 460.000000"
 preserveAspectRatio="xMidYMid meet">
<metadata>
Created by potrace 1.11, written by Peter Selinger 2001-2013
</metadata>
<g transform="translate(0.000000,460.000000) scale(0.100000,-0.100000)"
fill="#000000" stroke="none">
<path d="M0 3050 c0 -1518 0 -1550 19 -1550 17 0 18 -3 8 -24 -7 -13 -15 -22
-19 -20 -4 3 -7 -96 -8 -219 0 -212 1 -225 20 -242 12 -11 20 -31 20 -51 0
-44 15 -51 34 -17 l15 28 1 -35 c0 -20 -8 -52 -19 -73 -10 -20 -15 -34 -10
-31 20 12 37 63 49 139 27 177 81 345 110 345 5 0 8 8 7 18 0 9 16 47 37 85
36 63 50 82 42 54 -3 -6 -7 -32 -10 -57 -9 -65 8 -30 28 58 9 41 32 105 51
144 39 77 39 78 26 78 -4 0 -23 -29 -42 -65 -18 -35 -35 -63 -37 -60 -2 2 3
28 12 59 16 55 16 55 -8 79 -13 14 -29 42 -35 63 -14 49 -14 165 -1 235 13 66
71 186 124 254 60 77 63 83 23 45 -21 -19 -56 -63 -79 -99 -23 -35 -44 -59
-46 -52 -6 19 -21 12 -37 -19 -12 -23 -67 -60 -90 -60 -9 0 11 48 26 62 10 10
26 31 35 48 10 16 23 30 29 30 6 0 10 26 10 63 1 39 7 74 19 95 13 26 15 37 6
47 -17 20 -2 39 17 23 12 -10 17 -9 28 5 17 24 48 23 40 -2 -10 -33 11 -32 27
2 8 18 31 51 50 74 20 23 39 59 42 79 8 40 -7 89 -30 98 -18 7 -18 -2 1 -20
22 -22 19 -86 -6 -118 -20 -26 -21 -26 -45 -7 -13 10 -39 22 -58 25 -51 10
-67 35 -77 121 -10 93 7 149 83 265 l49 75 -47 -50 c-53 -57 -103 -155 -112
-217 l-5 -42 -14 47 c-10 33 -21 51 -38 59 -19 8 -25 19 -25 42 1 56 20 120
62 201 29 58 34 75 20 61 -49 -43 -155 -306 -153 -376 l1 -35 -15 34 c-26 57
-19 151 17 244 17 45 35 84 40 85 13 6 10 25 -12 67 -14 27 -20 59 -20 100 l1
60 29 -35 c41 -48 37 -32 -11 53 -57 99 -60 137 -18 224 l33 68 7 -61 c16
-130 48 -192 160 -311 73 -76 77 -105 24 -172 -39 -49 -48 -81 -10 -38 13 15
29 27 34 27 6 0 15 10 22 23 16 32 50 56 79 57 l25 0 -22 18 c-16 13 -19 22
-12 39 9 26 72 74 143 110 103 52 204 189 168 225 -9 9 -12 5 -12 -17 0 -42
-42 -106 -93 -143 -51 -36 -62 -39 -71 -16 -23 60 13 150 74 189 45 28 51 30
68 13 6 -6 21 -13 33 -15 35 -5 77 -41 88 -76 12 -36 -3 -106 -32 -147 -14
-21 -14 -24 8 -48 23 -25 45 -97 45 -148 0 -13 -7 -41 -15 -60 -8 -19 -14 -40
-12 -46 1 -5 -16 -16 -37 -24 -101 -36 -163 -131 -153 -234 5 -46 2 -61 -19
-101 -14 -26 -37 -52 -50 -60 -26 -13 -32 -29 -11 -29 15 0 69 55 86 87 6 12
11 52 11 88 0 52 6 79 26 119 27 53 61 96 77 96 5 0 23 6 40 14 18 8 64 24
104 35 40 12 74 25 77 30 3 4 -20 0 -51 -10 -31 -11 -57 -19 -59 -19 -11 0 35
102 59 133 17 22 40 54 53 72 24 36 25 33 -30 116 -20 30 -31 60 -33 94 -4 43
0 58 32 110 20 33 52 71 70 85 22 16 33 31 29 40 -12 32 -17 140 -7 140 6 0
13 8 17 18 3 9 9 24 12 32 5 13 4 13 -5 0 -9 -13 -11 -12 -11 6 0 23 -35 74
-51 74 -5 0 0 -10 11 -22 43 -46 40 -92 -9 -125 -42 -28 -76 -29 -118 -3 -45
27 -67 73 -59 124 8 49 21 66 52 66 32 0 38 -15 18 -45 -24 -36 -14 -36 21 1
l31 32 -35 18 c-51 27 -71 46 -71 66 0 23 9 23 26 1 19 -27 27 -10 15 33 -8
29 -8 40 2 46 6 4 14 3 15 -2 2 -6 11 -10 19 -10 13 0 13 -2 2 -17 -10 -11
-10 -14 -1 -9 19 11 35 -3 21 -20 -9 -11 -7 -15 7 -20 24 -9 91 -80 99 -105 4
-10 11 -19 16 -19 12 0 11 7 -1 31 -14 26 -1 24 35 -6 l29 -24 -22 -62 c-12
-34 -21 -64 -19 -65 2 -2 14 19 27 46 13 28 25 50 27 50 15 0 46 -25 52 -43
12 -32 -8 -65 -79 -130 -34 -32 -58 -57 -54 -57 11 0 133 101 143 118 5 8 16
17 25 18 9 1 14 -2 10 -7 -3 -5 2 -9 12 -9 13 0 15 -6 9 -37 -4 -21 -13 -50
-22 -66 -8 -16 -10 -26 -4 -23 6 4 11 5 11 2 0 -10 -28 -111 -40 -144 -19 -53
-6 -46 23 11 21 43 87 123 87 106 0 -2 -7 -37 -15 -77 -15 -72 -38 -122 -56
-122 -5 0 -8 -3 -7 -7 1 -5 -3 -19 -9 -33 -6 -14 -18 -42 -27 -64 -20 -48 -20
-52 0 -36 8 8 21 28 29 47 23 55 61 83 113 83 27 0 52 -6 63 -16 9 -8 23 -16
31 -18 7 -1 20 -6 28 -10 8 -5 3 4 -13 21 l-28 30 39 11 c45 14 72 15 72 5 0
-10 -67 -190 -75 -203 -3 -6 -15 -6 -31 0 -32 13 -111 -4 -144 -31 l-25 -20
32 16 c38 18 115 30 138 22 12 -5 7 -19 -30 -74 -25 -38 -50 -74 -57 -82 -26
-32 -78 -114 -78 -124 0 -6 12 8 27 31 15 23 28 40 29 39 2 -1 -6 -34 -17 -72
-21 -74 -19 -118 7 -146 14 -16 13 -23 -10 -81 -14 -36 -26 -72 -26 -80 0 -28
-40 -111 -79 -163 -20 -27 -62 -90 -92 -140 l-54 -89 -3 51 c-3 44 -9 58 -43
97 -23 25 -46 46 -52 45 -9 0 -9 -2 0 -5 7 -3 17 -20 23 -39 6 -18 22 -41 36
-50 22 -14 25 -22 23 -68 -2 -42 -30 -119 -56 -156 -1 -2 -11 7 -22 20 -16 20
-28 24 -74 23 l-56 -2 26 27 c27 28 53 80 53 108 0 25 -15 5 -29 -39 -13 -39
-81 -108 -107 -108 -8 0 -12 -4 -9 -10 3 -5 -3 -22 -14 -37 -12 -16 -23 -44
-26 -63 l-6 -35 23 45 c32 62 77 90 145 90 47 0 55 -3 65 -25 9 -19 8 -38 0
-76 -7 -28 -12 -69 -12 -92 0 -58 -48 -166 -75 -167 -15 0 -17 -2 -6 -9 12 -7
11 -17 -4 -59 -18 -50 -18 -53 5 -162 12 -61 20 -114 16 -117 -3 -3 -19 -6
-36 -7 -45 -2 -36 -14 12 -18 l41 -3 29 -105 c15 -58 32 -129 36 -158 5 -29
14 -58 20 -64 9 -9 5 -19 -15 -40 -32 -33 -20 -38 14 -6 24 22 25 22 54 5 17
-9 36 -17 43 -17 7 0 21 -9 31 -20 18 -20 18 -23 2 -85 l-17 -65 48 -62 c37
-49 49 -72 50 -103 2 -37 -3 -47 -48 -95 -27 -29 -50 -60 -50 -67 0 -19 26
-69 63 -121 26 -37 29 -46 19 -62 -7 -11 -12 -31 -12 -45 0 -27 51 -138 77
-167 13 -15 12 -20 -10 -50 -13 -18 -30 -43 -36 -55 l-12 -23 233 0 233 1 -95
44 c-52 25 -106 52 -120 60 -14 8 -54 29 -90 47 -67 34 -106 71 -127 121 -20
46 -5 50 45 14 63 -46 136 -82 225 -111 41 -14 94 -34 118 -47 24 -12 58 -26
74 -30 17 -4 62 -19 100 -32 84 -30 176 -45 158 -27 -6 7 -24 12 -40 12 -33 0
-119 34 -148 58 -11 10 -32 24 -46 31 -124 65 -159 86 -210 120 -101 69 -243
233 -267 309 -13 41 -19 107 -10 115 12 12 49 -21 94 -81 44 -60 73 -90 225
-225 121 -108 141 -125 199 -161 133 -84 92 -32 -57 73 -39 28 -74 57 -77 66
-6 13 -3 13 20 -2 14 -9 28 -15 30 -12 3 2 -7 12 -21 21 -27 18 -33 42 -12 49
11 4 136 -58 147 -73 3 -4 41 -24 85 -44 44 -21 107 -51 140 -66 100 -48 153
-70 167 -70 8 0 18 -4 24 -9 5 -5 29 -11 54 -15 32 -4 38 -3 20 3 -14 5 -21 9
-16 10 6 1 1 7 -9 15 -11 8 -23 12 -27 10 -5 -3 -8 0 -8 5 0 6 -3 10 -8 8 -4
-1 -20 8 -36 21 -20 15 -24 22 -12 22 9 0 16 4 16 9 0 5 10 9 23 10 60 1 73
11 40 30 -16 9 -16 10 4 11 87 1 -57 48 -260 85 -239 43 -549 185 -697 319
-66 59 -140 148 -140 168 0 26 55 162 115 285 30 61 55 116 55 121 0 22 108
254 157 336 29 49 58 105 64 125 6 20 22 57 36 84 43 86 21 57 -75 -98 -7 -11
-20 -34 -29 -52 l-16 -32 -24 22 c-13 12 -40 44 -59 70 -32 42 -35 52 -29 85
14 81 14 85 -4 32 l-18 -55 -40 80 c-69 139 -77 178 -70 343 4 102 10 149 20
161 15 17 83 193 98 251 5 22 6 -18 3 -110 -2 -80 0 -158 5 -175 l9 -30 1 34
c1 40 12 35 16 -6 6 -76 18 -153 25 -153 4 0 4 19 -1 43 -14 74 -9 74 31 -2
59 -112 68 -109 12 4 -76 154 -87 279 -43 490 l16 79 75 21 c41 12 104 36 139
53 l63 33 -6 -35 c-8 -41 10 -371 25 -471 6 -38 17 -90 24 -115 18 -63 37
-197 38 -268 0 -45 -5 -69 -22 -98 l-22 -38 43 39 c49 45 106 96 193 175 164
149 383 379 415 434 18 33 78 106 133 163 55 57 98 105 95 108 -2 3 -22 -13
-43 -35 -36 -37 -65 -54 -50 -30 3 6 -1 10 -10 10 -10 0 -13 5 -9 12 5 8 2 9
-9 5 -11 -4 -17 -1 -17 9 0 8 9 18 21 22 20 8 19 8 -5 22 -28 14 -33 29 -15
47 6 6 9 19 7 29 -2 11 3 24 11 31 9 6 16 26 17 44 2 28 0 31 -10 17 -9 -12
-17 -14 -29 -7 -25 14 -21 23 15 37 38 14 48 5 48 -47 0 -28 3 -32 18 -26 9 4
36 9 60 11 33 3 47 -1 60 -17 23 -27 78 -53 98 -45 14 5 15 4 5 -8 -8 -10 -9
-16 -1 -21 6 -3 8 -10 6 -14 -3 -4 1 -8 9 -8 10 0 11 5 4 19 -5 10 -6 18 -1
18 14 0 62 -25 62 -32 0 -5 9 -8 21 -8 24 0 117 -59 145 -92 18 -22 18 -22 -8
1 -15 13 -32 21 -38 19 -7 -2 13 -24 43 -48 66 -53 70 -60 52 -94 -14 -26 -13
-28 27 -56 23 -17 47 -30 55 -30 7 0 13 -5 13 -11 0 -7 -10 -9 -24 -5 -14 3
-28 2 -31 -4 -3 -5 -16 -10 -28 -10 -12 0 -39 -6 -62 -14 -22 -8 -69 -22 -104
-32 -94 -27 -347 -174 -452 -263 -13 -12 -49 -40 -79 -63 -197 -152 -365 -311
-525 -498 -44 -51 -105 -121 -135 -155 -61 -68 -274 -379 -296 -431 -8 -19
-14 -54 -14 -79 l0 -45 53 35 c37 25 60 50 80 87 37 71 143 208 363 467 67 79
276 284 396 387 297 255 455 359 665 439 121 46 163 54 276 56 131 3 161 -13
198 -101 31 -73 73 -363 67 -456 -2 -29 1 -50 5 -47 5 3 6 75 3 161 l-6 156
27 28 c29 30 69 37 93 16 12 -11 12 -10 1 5 -9 11 -27 17 -52 17 -26 0 -41 -6
-48 -17 -9 -16 -10 -16 -11 -1 0 9 3 23 6 32 7 19 111 94 172 125 54 28 170
40 183 20 16 -26 9 -55 -22 -85 -31 -29 -59 -74 -59 -94 0 -6 11 -15 25 -22
19 -9 22 -14 15 -29 -6 -10 -10 -26 -10 -37 0 -16 -10 -21 -52 -28 -29 -4 -59
-7 -65 -7 -7 0 -13 -3 -13 -7 0 -5 -25 -33 -55 -64 -41 -41 -55 -62 -55 -83
l1 -28 15 25 c12 20 14 21 10 5 -2 -11 -7 -42 -11 -70 -6 -42 -13 -55 -52 -89
-25 -22 -54 -54 -65 -71 l-19 -30 7 30 c14 61 -8 14 -56 -121 -27 -76 -65
-161 -83 -188 -27 -43 -127 -238 -127 -250 0 -2 37 -32 82 -66 99 -75 212
-190 240 -244 15 -30 18 -49 13 -83 -5 -38 -14 -50 -66 -93 -32 -27 -80 -61
-107 -76 -26 -15 -94 -55 -152 -89 -264 -155 -279 -160 -543 -160 -103 0 -184
-1 -180 -1 5 -1 26 -7 48 -14 32 -9 78 -9 209 0 191 13 246 26 604 143 76 25
102 30 102 20 0 -7 -6 -16 -14 -19 -8 -3 -13 -11 -11 -17 8 -22 -19 -42 -78
-60 -32 -10 -56 -21 -53 -24 3 -3 19 0 37 6 46 16 54 14 57 -14 1 -21 -9 -32
-56 -62 -126 -81 -447 -181 -687 -214 -44 -6 -82 -13 -84 -15 -2 -2 72 -4 165
-4 200 1 182 -4 450 121 61 28 104 34 154 20 38 -10 35 -33 -10 -83 -22 -25
-40 -49 -40 -52 0 -14 31 -4 42 14 7 11 19 20 26 20 7 0 11 4 8 9 -4 5 0 22 8
38 17 34 46 119 53 153 2 14 8 34 13 45 55 134 59 150 47 218 l-11 66 42 45
c38 41 42 51 42 95 0 27 -5 62 -10 76 -12 32 -134 155 -211 213 -30 22 -67 52
-84 66 l-30 25 30 57 c39 75 85 127 142 159 55 30 97 32 141 5 18 -11 44 -20
59 -20 15 0 45 -9 67 -19 83 -39 266 -68 266 -42 0 4 -30 8 -67 8 -50 0 -88 7
-143 27 -41 15 -93 31 -115 35 -73 13 -85 25 -85 84 0 29 5 58 12 65 7 7 9 12
6 12 -20 0 -38 -36 -38 -76 0 -43 0 -44 -34 -44 -18 0 -50 -7 -69 -15 -20 -8
-39 -15 -42 -15 -3 0 5 21 19 48 13 26 36 82 51 125 22 63 30 75 41 66 11 -9
14 -6 14 15 0 63 62 125 165 166 33 13 66 29 74 36 14 13 1 11 -83 -11 l-29
-8 7 49 c4 27 9 63 12 80 7 37 57 99 73 90 6 -4 11 -1 11 8 0 36 104 51 213
32 60 -11 64 7 5 23 -72 18 -73 21 -53 86 23 73 39 91 125 149 43 29 101 82
146 134 78 90 115 117 174 128 l35 7 -30 -34 c-68 -76 -65 -79 4 -6 41 42 78
77 82 77 3 0 0 -26 -7 -57 -7 -31 -11 -59 -9 -61 2 -2 9 16 15 39 5 24 22 68
35 97 14 29 25 58 25 65 0 18 60 170 74 187 14 17 66 116 66 126 0 4 -18 -16
-41 -45 -47 -59 -174 -161 -201 -161 -10 0 -18 -4 -18 -9 0 -9 -87 -50 -161
-76 -24 -9 -50 -21 -59 -29 -8 -7 -22 -16 -32 -19 -25 -9 -16 39 12 63 13 11
19 20 15 20 -4 0 4 10 19 23 21 19 24 25 14 36 -9 10 -9 12 -1 7 7 -4 17 3 24
16 7 12 23 31 36 42 13 10 22 25 19 32 -3 8 -1 14 4 14 5 0 12 20 16 45 3 25
10 42 15 39 5 -3 9 4 9 15 0 12 5 21 12 21 6 0 9 3 5 6 -3 4 13 26 36 51 49
52 122 164 137 210 16 46 70 84 109 77 l31 -6 0 631 0 631 -1271 0 -1270 0 7
-47 c4 -27 10 -57 14 -68 4 -11 5 -47 2 -81 l-4 -61 73 -60 c82 -66 86 -80 47
-156 -15 -31 -17 -45 -9 -68 7 -20 5 -50 -7 -108 -12 -61 -14 -85 -5 -103 17
-34 25 -83 29 -173 3 -74 2 -81 -20 -97 l-23 -17 -6 132 c-4 78 -16 179 -31
247 -22 107 -90 348 -101 359 -3 2 -5 -10 -5 -27 0 -33 -39 -194 -116 -482
-26 -96 -53 -202 -62 -235 -61 -249 -67 -266 -92 -280 -90 -49 -211 -102 -216
-94 -3 5 -10 7 -15 4 -12 -8 -13 -10 16 86 14 46 46 125 71 174 24 50 37 81
28 70 l-17 -20 8 20 c4 11 24 83 46 160 22 77 46 154 53 170 8 17 18 48 23 70
9 37 26 99 103 370 25 90 27 111 23 208 l-6 107 -933 0 -934 0 0 -1550z m3140
1487 c0 -18 9 -64 21 -102 34 -116 38 -137 28 -156 -5 -11 -13 -28 -19 -39 -5
-11 -10 -26 -10 -33 0 -7 -16 -40 -35 -72 -50 -82 -175 -322 -175 -334 0 -6
-27 -67 -60 -136 -33 -69 -60 -132 -60 -139 0 -8 -8 -31 -19 -53 -24 -49 -53
-120 -86 -210 -15 -40 -31 -74 -36 -74 -5 -1 -13 -3 -19 -4 -5 -1 -13 -3 -16
-4 -4 0 -1 -8 6 -16 10 -12 10 -15 -1 -15 -11 0 -11 -2 -1 -9 10 -6 11 -17 2
-53 -12 -47 -4 -79 37 -138 9 -14 11 -19 3 -12 -8 6 -22 12 -31 12 -10 0 -31
11 -47 25 -17 14 -35 25 -41 25 -7 0 -14 6 -17 14 -3 8 -23 27 -45 42 -21 14
-39 31 -39 37 0 6 18 39 41 73 40 62 41 62 60 43 20 -20 55 -25 79 -9 12 7 15
36 16 142 1 132 1 133 37 204 20 39 56 132 80 205 25 74 58 159 75 190 27 51
133 309 208 509 15 41 31 79 36 85 4 5 8 17 8 28 0 10 5 15 10 12 6 -3 10 -21
10 -38z m-2626 -214 c-4 -16 -13 -32 -20 -38 -36 -28 -84 -100 -84 -124 0 -19
-14 -40 -44 -70 -24 -24 -48 -42 -52 -40 -5 1 -19 -12 -31 -31 l-23 -33 0 32
c0 53 37 111 144 222 55 59 104 107 109 108 4 1 4 -11 1 -26z m106 -99 c0 -8
-21 -37 -46 -64 -55 -59 -49 -65 14 -12 78 64 94 73 111 59 11 -9 15 -9 18 1
3 6 13 12 24 12 13 0 17 -5 12 -16 -5 -14 -3 -15 16 -5 12 7 21 8 20 4 -3 -17
1 -33 9 -32 26 4 19 -6 -34 -47 -67 -52 -106 -74 -149 -85 -28 -6 -28 -7 -5
-8 26 -1 128 54 212 115 27 19 51 34 54 34 10 0 -9 -95 -27 -131 -25 -49 -90
-100 -203 -157 -53 -27 -96 -47 -96 -45 0 3 5 14 11 25 9 16 8 19 -3 16 -7 -3
-29 -47 -49 -99 -42 -109 -116 -259 -129 -259 -5 0 -11 30 -13 68 -2 37 -2
-14 1 -114 2 -99 1 -195 -3 -212 l-7 -32 -38 31 c-41 33 -66 77 -100 178 -29
87 -30 262 -1 318 55 108 150 196 251 230 36 13 49 20 30 17 -65 -11 -169 -65
-210 -110 -48 -52 -53 -35 -15 43 32 63 124 156 188 189 31 16 47 31 47 43 0
22 48 56 85 59 17 1 25 -3 25 -14z m213 -29 c-3 -9 -8 -14 -10 -11 -3 3 -2 9
2 15 9 16 15 13 8 -4z m2324 -163 c3 -55 -20 -170 -47 -227 -10 -22 -60 -149
-112 -282 l-93 -243 -50 -15 c-68 -19 -97 -12 -88 23 20 82 175 470 234 587
44 88 65 113 80 98 18 -18 32 -16 25 3 -3 8 -2 12 4 9 6 -3 10 -2 10 4 0 5 -6
12 -12 14 -7 3 -3 6 9 6 15 1 22 7 21 19 -1 9 0 28 0 41 3 40 15 14 19 -37z
m102 -206 c14 -17 30 -164 31 -272 0 -52 -4 -75 -15 -84 -9 -7 -17 -11 -19 -9
-6 8 -26 240 -26 308 0 71 7 84 29 57z m-2433 -74 c39 -26 44 -93 9 -127 -27
-28 -94 -35 -113 -12 -16 18 -25 63 -17 86 12 39 91 74 121 53z m517 -19 c-3
-10 -3 -15 1 -11 4 3 17 -3 29 -15 l21 -21 -59 -52 c-33 -29 -61 -52 -62 -50
-5 5 46 137 58 153 15 18 20 16 12 -4z m117 -93 c11 -12 20 -26 21 -29 0 -3 2
-15 4 -26 5 -23 -53 -80 -114 -112 -37 -20 -41 -20 -41 -5 0 25 25 114 40 142
32 62 55 70 90 30z m1946 -17 c23 -40 28 -60 29 -116 0 -51 3 -64 11 -52 16
22 21 19 49 -28 46 -79 27 -157 -51 -206 -26 -17 -52 -32 -58 -34 -6 -2 -8 -7
-4 -11 3 -4 20 0 38 9 36 18 35 19 44 -12 15 -47 -85 -75 -139 -39 -13 9 -35
15 -47 15 -18 -1 -19 -2 -5 -6 15 -4 12 -9 -18 -33 -41 -33 -94 -48 -105 -31
-5 9 -18 8 -51 -5 -24 -9 -60 -17 -79 -18 -31 -1 -35 2 -38 25 -4 36 20 57 76
64 60 9 125 25 120 30 -2 3 -19 0 -38 -5 -19 -5 -35 -8 -37 -6 -5 5 93 98 119
112 12 7 36 13 51 14 53 0 93 25 116 72 31 66 25 81 -9 21 -34 -59 -47 -70
-63 -54 -15 15 -27 14 -27 -4 0 -9 -9 -14 -22 -14 -13 0 -33 -2 -45 -6 -39
-12 -25 41 14 56 18 7 23 14 18 29 -3 10 -1 28 5 40 12 23 90 66 90 50 0 -6 5
-8 10 -5 16 10 12 21 -15 46 -19 19 -25 34 -25 71 0 61 7 78 35 78 17 0 31
-13 51 -47z m-326 -248 c16 -19 -6 -53 -24 -35 -5 5 -20 10 -33 10 -21 0 -22
2 -11 20 15 24 50 26 68 5z m59 -49 c27 -32 -31 -77 -66 -50 -17 13 -17 15 10
39 32 29 40 30 56 11z m-686 -19 c-4 -7 0 -6 10 2 15 11 17 11 17 -2 0 -8 12
-19 27 -24 l27 -9 -26 -27 c-20 -20 -37 -27 -67 -27 -22 0 -47 -3 -56 -7 -14
-5 -16 -2 -11 14 4 11 2 31 -3 45 -12 32 -2 45 32 44 16 -1 31 2 33 6 3 5 10
6 15 2 5 -3 6 -11 2 -17z m571 17 c9 -3 16 -16 16 -29 0 -25 24 -50 38 -41 14
8 22 -47 10 -61 -8 -10 -14 -7 -29 10 -16 19 -18 20 -19 5 0 -12 -8 -18 -25
-18 -14 0 -29 -8 -35 -20 -7 -13 -21 -20 -40 -20 -36 0 -38 13 -8 34 25 18 17
21 -13 6 -10 -6 -19 -8 -19 -5 0 15 25 52 49 72 22 19 23 23 8 23 -15 0 -13 5
10 25 31 27 34 28 57 19z m-129 -73 c-8 -13 -35 -15 -35 -2 0 5 8 11 18 13 21
5 26 2 17 -11z m243 -6 c-3 -3 -13 -2 -22 1 -14 5 -15 9 -4 15 13 8 36 -6 26
-16z m1260 -34 c-16 -32 -42 -70 -56 -82 -15 -13 -21 -17 -14 -9 6 8 12 22 12
32 0 10 5 18 10 18 6 0 10 9 10 21 0 24 24 51 35 41 5 -4 5 -1 1 6 -9 15 1 32
19 32 9 0 4 -18 -17 -59z m-28 34 c-7 -8 -17 -12 -22 -9 -6 4 -5 10 3 15 22
14 33 10 19 -6z m-1571 -11 c14 -1 31 2 37 7 8 6 14 4 18 -6 3 -9 10 -13 16
-10 5 3 10 4 10 1 0 -5 -21 -56 -26 -64 -1 -2 -12 6 -24 18 -17 17 -31 21 -60
18 -37 -3 -37 -3 -28 24 6 16 15 25 21 21 5 -3 22 -7 36 -9z m909 -76 c2 -11
-8 -18 -32 -22 -63 -12 -124 -111 -100 -163 5 -13 9 -6 14 27 8 57 22 82 56
100 21 12 28 12 31 3 3 -7 13 -13 24 -13 26 0 25 -40 -2 -74 -11 -14 -19 -31
-17 -38 6 -16 49 48 58 86 7 28 8 27 9 -17 1 -34 -3 -49 -14 -53 -8 -4 -13
-10 -10 -14 3 -5 -2 -15 -10 -24 -9 -8 -15 -19 -15 -23 0 -4 -11 -9 -26 -11
-24 -3 -25 -4 -7 -17 16 -13 14 -14 -24 -15 -57 0 -89 16 -108 55 -18 39 -19
61 -4 104 8 23 15 29 23 22 8 -7 16 4 29 39 21 60 70 95 102 75 11 -7 21 -19
23 -27z m-1207 15 c-23 -39 -38 -50 -73 -55 -31 -3 -38 0 -42 17 -11 40 -7 44
52 48 31 2 61 4 65 5 4 1 3 -6 -2 -15z m519 -7 c0 -2 -7 -7 -16 -10 -8 -3 -12
-2 -9 4 6 10 25 14 25 6z m-881 -32 c12 -15 21 -34 21 -43 0 -9 11 -28 24 -42
40 -43 46 -65 53 -177 8 -154 -18 -315 -57 -342 -4 -3 -29 -32 -56 -65 -26
-33 -63 -75 -81 -94 l-32 -33 -43 17 c-24 9 -49 25 -56 35 -20 32 -59 135 -66
176 -4 21 -11 44 -16 49 -13 16 -30 148 -30 234 0 75 2 80 28 100 17 13 22 21
12 21 -8 0 1 10 22 23 20 12 68 41 106 64 39 24 72 46 74 51 4 10 59 52 69 52
4 0 17 -12 28 -26z m-612 -6 c-3 -8 -6 -5 -6 6 -1 11 2 17 5 13 3 -3 4 -12 1
-19z m1774 -101 c-8 -39 -16 -173 -19 -296 l-4 -223 -37 6 c-20 3 -43 6 -53 6
-11 0 -15 6 -11 20 5 19 5 19 44 0 21 -11 41 -20 44 -20 9 0 5 28 -4 32 -13 4
-15 139 -6 353 6 141 11 184 23 198 29 32 37 4 23 -76z m-1694 46 c-3 -10 -5
-4 -5 12 0 17 2 24 5 18 2 -7 2 -21 0 -30z m1358 10 c-8 -35 -11 -37 -30 -30
-16 7 -21 27 -5 27 5 0 7 7 4 15 -4 11 0 15 16 15 19 0 21 -4 15 -27z m1347
-5 c-7 -7 -12 -8 -12 -2 0 6 3 14 7 17 3 4 9 5 12 2 2 -3 -1 -11 -7 -17z
m-529 -28 c3 -11 1 -18 -4 -14 -5 3 -9 12 -9 20 0 20 7 17 13 -6z m-654 -114
c-1 -62 0 -117 4 -122 9 -16 -30 -74 -50 -74 -16 0 -16 -1 0 -17 17 -17 19
-17 28 0 6 9 15 14 21 11 6 -4 8 -3 5 3 -4 6 -1 23 7 38 11 20 13 56 8 152 -4
103 -3 125 9 121 29 -10 35 -111 15 -243 -8 -50 -38 -109 -58 -113 -17 -3 -97
58 -97 75 -1 7 -21 24 -46 39 -41 24 -45 29 -45 64 0 42 -17 90 -32 90 -5 0
-7 4 -3 9 3 5 1 12 -5 16 -5 3 -10 -1 -10 -9 0 -9 -5 -16 -11 -16 -8 0 -9 11
-5 31 3 17 6 37 6 45 0 10 9 9 40 -4 35 -15 40 -21 40 -49 0 -17 6 -38 13 -45
7 -7 16 -21 20 -30 6 -18 27 -25 27 -10 0 4 -9 21 -20 37 -11 17 -20 40 -20
53 l0 23 22 -21 c29 -27 52 -22 56 13 5 39 24 34 21 -6 -2 -18 0 -38 5 -45 5
-8 -6 -26 -29 -49 -19 -19 -33 -38 -30 -41 10 -10 38 12 63 48 19 28 21 41 16
83 -5 36 -3 51 7 57 26 16 30 -3 28 -114z m655 59 c-4 -8 -8 -15 -10 -15 -2 0
-4 7 -4 15 0 8 4 15 10 15 5 0 7 -7 4 -15z m-322 -66 c24 -12 64 -32 90 -45
27 -13 61 -24 76 -24 32 0 52 -16 52 -42 0 -21 8 -22 46 -8 46 18 37 5 -18
-25 -29 -16 -47 -30 -40 -33 7 -2 42 12 77 32 62 34 86 44 72 30 -4 -4 5 -17
19 -29 l26 -23 -27 6 -28 5 21 -21 c23 -23 39 -69 28 -80 -4 -3 -36 -8 -72
-10 -78 -5 -127 13 -243 92 -76 52 -138 74 -178 63 -10 -3 -29 -9 -42 -12
l-24 -7 7 72 c3 40 9 77 13 82 9 16 96 2 145 -23z m343 -16 c22 -50 17 -57
-45 -77 -33 -11 -62 -17 -64 -15 -25 26 32 107 75 108 17 1 30 -6 34 -16z
m-905 -38 c0 -12 -20 6 -31 28 l-11 22 21 -22 c11 -12 21 -25 21 -28z m-1417
-15 c3 -11 1 -18 -4 -14 -5 3 -9 12 -9 20 0 20 7 17 13 -6z m2737 -4 c0 -2 -8
-10 -17 -17 -16 -13 -17 -12 -4 4 13 16 21 21 21 13z m-742 -78 l47 -23 -57
-6 c-65 -7 -122 -39 -149 -83 l-19 -31 0 72 c0 69 1 72 28 81 45 17 100 13
150 -10z m57 -48 c14 -5 51 -29 82 -52 l56 -43 104 -1 c63 -1 109 -6 116 -13
6 -6 7 -11 2 -11 -5 0 0 -7 12 -15 28 -20 22 -36 -20 -54 -143 -63 -395 -284
-398 -350 0 -9 -11 20 -23 64 -26 92 -59 153 -117 219 -41 46 -41 48 -37 111
3 51 9 70 28 91 49 53 135 77 195 54z m-480 -30 c10 -11 16 -20 13 -20 -3 0
-13 9 -23 20 -10 11 -16 20 -13 20 3 0 13 -9 23 -20z m95 -98 c16 -17 17 -20
3 -8 -27 22 -39 5 -13 -19 11 -10 17 -22 14 -27 -3 -5 -15 3 -26 17 -16 21
-18 28 -8 40 7 8 9 15 5 15 -4 0 -17 -11 -29 -25 l-22 -25 -2 35 c-3 34 -2 35
25 29 15 -3 39 -18 53 -32z m-1913 -214 c-3 -8 -6 -5 -6 6 -1 11 2 17 5 13 3
-3 4 -12 1 -19z m2666 -134 c3 -4 -9 -26 -28 -51 -18 -24 -36 -50 -38 -56 -3
-9 -7 -9 -17 0 -14 13 -6 32 37 80 30 33 36 37 46 27z m-42 -101 c-12 -20 -14
-14 -5 12 4 9 9 14 11 11 3 -2 0 -13 -6 -23z m-1994 -45 c-3 -7 -5 -2 -5 12 0
14 2 19 5 13 2 -7 2 -19 0 -25z m-1751 -197 c-9 -16 -16 -44 -16 -61 0 -21 -4
-30 -12 -27 -19 6 -10 64 15 103 26 39 35 28 13 -15z m944 -323 c34 -68 87
-160 116 -206 63 -97 94 -155 94 -177 0 -22 -88 -195 -100 -195 -5 0 -12 5
-15 10 -4 6 -10 8 -14 5 -10 -5 -101 50 -118 73 -7 9 -13 27 -13 40 0 13 -16
74 -35 136 -39 125 -85 331 -85 379 0 31 36 142 61 188 12 22 14 18 29 -53 11
-53 37 -117 80 -200z m282 97 c-21 -27 -32 -58 -72 -220 -24 -94 -29 -108 -25
-64 5 60 56 244 81 291 8 16 19 26 25 23 5 -4 2 -16 -9 -30z m-1242 7 c0 -10
-50 -35 -57 -28 -3 2 8 11 24 20 34 18 33 18 33 8z m16 -54 c-4 -18 -11 -53
-15 -78 -4 -25 -12 -54 -18 -64 -10 -18 -11 -17 -17 10 -3 16 -5 49 -5 73 1
25 -4 47 -11 51 -9 6 -4 13 16 24 46 25 58 21 50 -16z m-66 -70 c-1 -26 -3
-30 -10 -16 -6 9 -7 23 -4 32 9 25 14 19 14 -16z m90 -83 c0 -8 -9 -15 -20
-15 -20 0 -26 11 -13 23 12 13 33 7 33 -8z m-70 -55 c-12 -22 -15 -63 -7 -77
11 -17 1 -16 -28 3 -27 18 -34 37 -10 28 8 -4 15 -1 15 5 0 6 -5 11 -12 11 -6
0 -3 7 8 15 10 8 14 15 7 15 -8 0 -8 6 0 24 10 21 13 22 23 8 7 -10 9 -23 4
-32z m80 -1 c0 -6 9 -9 20 -6 11 3 18 1 15 -3 -3 -5 4 -11 15 -15 16 -5 19
-12 14 -33 -4 -15 -9 -30 -11 -34 -14 -26 -68 18 -57 46 3 9 1 16 -5 16 -6 0
-11 -9 -11 -20 0 -11 -4 -20 -10 -20 -5 0 -10 7 -10 16 0 11 -6 15 -19 11 -17
-4 -18 -2 -9 24 8 23 16 29 39 29 16 0 29 -5 29 -11z m-20 -93 c0 -8 11 -17
25 -20 14 -4 25 -11 25 -16 0 -14 -23 -25 -28 -12 -4 12 -42 17 -42 6 0 -3 5
-15 11 -26 10 -19 9 -20 -14 -14 -14 3 -29 1 -32 -4 -7 -11 -25 -4 -25 8 0 4
14 16 30 26 17 9 28 22 24 27 -8 13 3 39 16 39 5 0 10 -6 10 -14z m-75 -216
c3 -5 -1 -10 -10 -10 -9 0 -13 5 -10 10 3 6 8 10 10 10 2 0 7 -4 10 -10z m45
-20 c0 -5 -2 -10 -4 -10 -3 0 -8 5 -11 10 -3 6 -1 10 4 10 6 0 11 -4 11 -10z
m-10 -80 c0 -27 -19 -35 -38 -17 -12 13 -13 19 -3 31 16 19 41 10 41 -14z"/>
<path d="M3080 3940 c0 -5 5 -10 10 -10 6 0 10 5 10 10 0 6 -4 10 -10 10 -5 0
-10 -4 -10 -10z"/>
<path d="M3393 3514 c5 -7 12 -25 17 -41 7 -23 8 -24 9 -7 1 12 -7 30 -16 41
-10 10 -14 13 -10 7z"/>
<path d="M3654 2961 c-5 -5 -20 -11 -34 -14 -21 -4 -20 -4 7 -6 17 0 35 4 38
10 9 14 1 21 -11 10z"/>
<path d="M2065 3100 c-3 -5 -1 -10 4 -10 6 0 11 5 11 10 0 6 -2 10 -4 10 -3 0
-8 -4 -11 -10z"/>
<path d="M2130 3061 c0 -5 5 -13 10 -16 6 -3 10 -2 10 4 0 5 -4 13 -10 16 -5
3 -10 2 -10 -4z"/>
<path d="M2003 2996 c-4 -8 -24 -18 -43 -23 -27 -7 -38 -17 -47 -44 -16 -45
-15 -131 1 -200 21 -89 36 -112 79 -124 21 -6 35 -14 31 -17 -3 -4 -3 -11 1
-17 23 -39 95 86 95 166 0 66 -25 187 -47 223 -21 36 -59 55 -70 36z m17 -56
c0 -5 -10 -10 -23 -10 -13 0 -28 -5 -35 -12 -7 -7 -12 -9 -12 -6 0 4 7 14 16
22 17 18 54 22 54 6z m28 -42 c7 -7 12 -16 12 -22 0 -5 -6 -3 -12 6 -7 9 -22
18 -33 21 -20 5 -20 5 1 6 11 0 25 -4 32 -11z m-65 -18 c-3 -11 -9 -20 -14
-20 -11 0 -11 3 -3 24 9 23 23 20 17 -4z m51 -16 c3 -9 6 -26 6 -39 0 -18 -4
-22 -20 -18 -26 7 -36 -20 -21 -53 14 -32 34 -26 43 12 4 17 6 0 5 -44 -1 -39
2 -73 7 -75 5 -2 4 -12 -3 -23 -10 -15 -11 -15 -7 -1 3 10 0 17 -7 17 -36 0
-66 129 -47 200 11 41 33 53 44 24z m-49 -196 c19 -39 12 -48 -10 -14 -25 37
-35 92 -27 150 l6 51 8 -78 c4 -43 14 -92 23 -109z m82 160 c-3 -8 -6 -5 -6 6
-1 11 2 17 5 13 3 -3 4 -12 1 -19z m0 -110 c-3 -7 -5 -2 -5 12 0 14 2 19 5 13
2 -7 2 -19 0 -25z"/>
<path d="M1885 2597 c-4 -10 -5 -21 -1 -24 10 -10 18 4 13 24 -4 17 -4 17 -12
0z"/>
<path d="M1900 2525 c0 -8 5 -15 10 -15 6 0 10 7 10 15 0 8 -4 15 -10 15 -5 0
-10 -7 -10 -15z"/>
<path d="M1284 3335 c-18 -13 -18 -14 4 -8 12 3 25 9 28 14 8 14 -10 11 -32
-6z"/>
<path d="M727 3193 c-29 -34 -45 -142 -22 -150 6 -2 10 19 10 50 0 29 7 66 17
85 19 36 18 40 -5 15z"/>
<path d="M1548 3193 c7 -3 16 -2 19 1 4 3 -2 6 -13 5 -11 0 -14 -3 -6 -6z"/>
<path d="M540 3157 c0 -3 18 -14 40 -25 39 -19 53 -16 27 6 -14 12 -67 27 -67
19z"/>
<path d="M1013 2905 c-37 -16 -63 -60 -63 -108 0 -30 -4 -35 -28 -40 -43 -9
-88 -62 -115 -136 -32 -89 -33 -131 -5 -163 13 -14 28 -34 34 -44 7 -11 15
-16 19 -12 4 4 2 14 -5 23 -11 13 -10 14 6 9 18 -6 18 -6 -1 9 -11 8 -24 13
-28 10 -5 -3 -7 1 -6 8 2 8 0 31 -5 52 -9 49 14 130 53 184 23 32 38 42 68 47
38 7 38 7 35 50 -5 57 9 81 61 105 47 22 29 28 -20 6z"/>
<path d="M2775 2810 c4 -6 10 -8 15 -5 4 3 7 -3 6 -12 0 -9 5 -18 12 -20 15
-6 16 19 0 35 -15 15 -42 16 -33 2z"/>
<path d="M2825 2760 c-3 -5 -1 -10 4 -10 6 0 11 5 11 10 0 6 -2 10 -4 10 -3 0
-8 -4 -11 -10z"/>
<path d="M370 2709 c-6 -11 -9 -28 -7 -37 4 -13 5 -12 6 4 1 26 17 40 51 47
21 4 20 4 -7 6 -23 1 -35 -5 -43 -20z"/>
<path d="M1230 2726 c0 -2 18 -13 40 -24 27 -13 40 -16 40 -7 0 6 -11 17 -25
23 -25 12 -55 16 -55 8z"/>
<path d="M1125 2685 c-17 -14 -37 -22 -47 -19 -10 3 -18 1 -18 -5 0 -17 67
-81 87 -82 44 -4 75 2 105 21 39 24 31 26 -19 5 -47 -20 -76 -19 -102 3 -28
22 -18 54 24 82 17 11 23 20 15 20 -8 0 -28 -11 -45 -25z"/>
<path d="M2910 2693 c0 -15 6 -23 16 -23 10 0 14 -6 10 -15 -9 -23 29 -39 48
-19 19 18 36 10 36 -17 0 -21 15 -26 25 -8 4 5 -1 19 -10 29 -22 25 -91 61
-100 52 -3 -3 -10 0 -15 8 -8 12 -10 10 -10 -7z"/>
<path d="M2977 2699 c7 -7 15 -10 18 -7 3 3 -2 9 -12 12 -14 6 -15 5 -6 -5z"/>
<path d="M720 2501 c0 -6 5 -11 11 -11 6 0 9 -17 7 -42 -3 -40 -5 -43 -33 -43
-22 0 -31 6 -37 25 -6 23 -7 23 -5 -5 2 -28 5 -30 42 -30 l40 0 0 54 c0 35 -5
56 -12 59 -7 2 -13 -1 -13 -7z"/>
<path d="M4586 2359 c-8 -42 0 -50 9 -9 4 17 5 34 2 36 -2 3 -7 -10 -11 -27z"/>
<path d="M652 2275 c0 -16 2 -22 5 -12 2 9 2 23 0 30 -3 6 -5 -1 -5 -18z"/>
<path d="M3150 2221 c0 -5 -15 -14 -32 -19 -48 -14 -294 -120 -347 -150 -25
-14 -68 -37 -96 -51 -63 -33 -294 -210 -447 -344 -153 -133 -329 -323 -408
-439 -35 -51 -75 -107 -90 -124 -15 -18 -38 -50 -51 -73 -29 -53 -81 -87 -144
-95 -56 -7 -83 -30 -63 -54 12 -14 69 -12 136 5 22 5 22 4 22 -94 0 -104 15
-148 45 -136 11 4 13 1 9 -11 -4 -11 -1 -16 10 -16 19 0 37 39 30 66 -5 25
-11 174 -7 174 2 0 28 -13 56 -29 89 -50 230 -112 216 -95 -11 13 -9 14 14 3
15 -7 24 -15 22 -19 -8 -14 83 -50 130 -52 30 -1 45 -6 45 -15 0 -12 13 -17
33 -14 4 1 15 -5 23 -14 18 -17 38 -20 28 -4 -4 8 1 9 17 4 13 -4 29 -8 34 -9
6 0 13 -8 16 -16 4 -8 28 -21 55 -29 27 -8 68 -20 91 -28 67 -22 282 -62 358
-67 44 -2 221 28 239 42 6 5 31 15 56 22 25 8 70 26 100 41 30 15 71 34 90 42
63 25 107 76 115 131 9 57 3 69 -65 142 -53 57 -86 81 -152 113 -27 13 -48 27
-48 32 0 6 5 7 10 4 6 -3 10 -2 10 4 0 5 -4 13 -10 16 -23 14 -5 71 70 217 93
180 154 346 175 473 21 125 19 171 -10 260 -26 80 -73 170 -83 160 -3 -3 -18
6 -33 21 -22 21 -39 26 -98 30 -45 4 -71 2 -71 -5z m180 -71 c11 -6 25 -20 31
-33 12 -22 12 -22 -10 -3 -11 11 -42 25 -68 32 l-48 13 38 0 c21 1 47 -4 57
-9z m-210 -20 c-8 -5 -22 -9 -30 -9 -10 0 -8 3 5 9 27 12 43 12 25 0z m-115
-39 c-11 -9 -121 -51 -133 -51 -4 1 20 14 53 30 59 28 98 39 80 21z m-170 -70
c-6 -5 -32 -21 -58 -35 -26 -13 -61 -36 -78 -50 -17 -14 -36 -26 -42 -26 -7 1
1 11 17 24 56 47 198 123 161 87z m-235 -146 c0 -2 -15 -12 -32 -20 l-33 -16
24 21 c22 19 41 26 41 15z m39 -68 c22 -49 65 -137 95 -192 50 -89 71 -242 41
-299 -21 -40 -19 -43 10 -16 21 20 25 21 25 6 0 -9 5 -14 10 -11 6 3 10 -3 10
-15 0 -35 17 -13 24 30 5 32 10 41 24 38 13 -2 18 -17 22 -55 3 -29 12 -58 19
-65 11 -11 12 -9 7 9 -4 12 -4 38 0 58 5 29 9 33 20 24 8 -6 23 -31 33 -55 12
-27 34 -52 60 -69 65 -44 65 -66 2 -195 -22 -43 -42 -92 -46 -108 -8 -37 -37
-64 -73 -68 -15 -2 -45 -10 -67 -18 -36 -13 -38 -15 -12 -15 15 -1 43 6 62 13
28 12 35 12 35 2 0 -14 -50 -81 -74 -100 -8 -6 -35 -44 -60 -83 -41 -66 -48
-72 -73 -68 -208 36 -320 61 -463 106 -95 30 -95 30 -131 87 -20 31 -47 83
-60 115 l-23 58 26 25 25 26 12 -47 c6 -25 15 -44 20 -41 4 3 17 -7 29 -23 13
-18 28 -27 44 -26 16 2 38 -12 70 -43 26 -25 50 -43 54 -39 4 3 16 0 28 -8 32
-23 42 -17 16 10 -13 14 -26 23 -28 20 -3 -3 -14 2 -24 12 -12 10 -18 12 -18
4 0 -15 -73 68 -106 120 -32 51 -44 56 -34 16 4 -17 11 -41 16 -51 5 -13 4
-17 -4 -12 -15 9 -59 151 -74 237 -9 54 -9 70 1 83 19 23 28 12 36 -45 5 -33
15 -58 31 -74 28 -28 28 -27 11 13 -10 23 -10 47 -3 96 6 36 14 66 18 66 11 0
21 -47 15 -69 -2 -10 0 -26 6 -36 5 -10 10 -53 12 -95 1 -64 6 -85 29 -124 15
-25 29 -46 32 -46 3 0 2 5 -1 10 -4 6 -8 25 -10 43 -3 25 -2 28 6 15 5 -10 18
-18 28 -18 10 0 26 -9 35 -19 20 -22 58 -17 49 6 -4 11 -8 11 -13 3 -9 -14
-80 27 -80 46 0 6 -7 17 -15 24 -8 7 -15 16 -15 20 0 12 47 5 64 -9 11 -9 26
-9 68 3 35 9 44 14 27 15 -14 1 -42 12 -62 25 -19 13 -37 22 -39 20 -3 -2 -15
7 -28 21 -13 14 -19 25 -13 25 6 0 14 -7 17 -16 3 -8 10 -13 16 -9 5 3 33 -1
61 -10 29 -8 55 -13 57 -10 3 2 -4 7 -14 10 -10 4 -27 11 -36 16 -10 5 -25 9
-33 9 -8 0 -15 5 -15 11 0 6 -6 9 -14 6 -17 -7 -66 28 -66 47 0 17 55 19 70 1
7 -8 16 -15 21 -15 5 0 -2 12 -15 28 -107 121 -121 150 -110 223 6 38 18 44
20 11 1 -10 2 -27 3 -39 1 -26 53 -67 96 -78 l30 -7 -30 26 c-16 14 -33 26
-37 26 -10 0 -30 66 -26 87 5 29 32 42 112 54 100 15 122 8 147 -44 l19 -42
-5 35 c-4 31 -3 33 9 18 19 -25 23 -22 18 13 -4 28 -2 30 17 24 32 -10 25 2
-11 22 -46 25 -201 22 -283 -5 -65 -22 -78 -15 -55 29 8 15 9 19 1 15 -7 -4
-11 1 -11 12 0 18 67 87 127 130 l29 21 53 -71 c39 -54 49 -73 39 -79 -8 -6
-2 -9 18 -9 17 0 48 -7 69 -16 49 -20 55 -11 16 25 -28 26 -31 35 -31 90 l0
61 48 0 c44 1 46 2 27 16 -11 8 -32 14 -47 11 -27 -3 -28 -2 -28 38 0 44 23
87 43 79 7 -2 19 -19 26 -37z m-174 -32 c-16 -13 -36 -24 -44 -25 -8 0 0 11
19 25 44 32 64 33 25 0z m962 -57 c-3 -8 -6 -5 -6 6 -1 11 2 17 5 13 3 -3 4
-12 1 -19z m-143 -143 c-18 -107 -30 -150 -48 -165 -9 -7 -8 2 4 27 10 21 21
54 24 73 5 34 5 34 -12 15 -9 -11 -25 -21 -34 -23 -16 -3 -18 6 -18 74 0 88
20 134 57 134 13 0 23 6 24 13 1 6 5 -4 9 -23 6 -23 4 -67 -6 -125z m-934 121
c0 -2 -8 -10 -17 -17 -16 -13 -17 -12 -4 4 13 16 21 21 21 13z m719 -52 c-7
-27 -33 -89 -58 -138 -25 -49 -52 -106 -58 -125 -21 -60 -6 185 15 250 20 62
52 81 52 32 1 -27 1 -27 15 -8 43 59 51 57 34 -11z m105 9 c-3 -21 -16 -63
-28 -93 -16 -41 -26 -55 -41 -55 -11 0 -35 -8 -52 -18 -18 -10 -33 -14 -33
-11 0 14 93 177 111 195 11 11 26 19 34 19 13 0 15 -7 9 -37z m-219 -15 c-9
-39 -53 -159 -89 -243 -21 -49 -26 -55 -26 -31 0 21 -4 27 -15 22 -11 -4 -15
1 -15 19 0 13 -7 50 -15 82 -17 66 -19 113 -5 113 6 0 10 -10 10 -22 0 -13 5
-30 10 -38 8 -12 10 -10 10 8 0 34 21 112 30 112 4 0 11 -12 15 -27 l7 -28 13
25 c9 16 15 19 15 10 1 -10 5 -7 12 8 6 12 20 22 30 22 17 0 19 -5 13 -32z
m-645 17 c0 -2 -10 -10 -22 -16 -21 -11 -22 -11 -9 4 13 16 31 23 31 12z m239
-72 c8 -18 8 -23 -4 -23 -12 0 -35 28 -35 43 0 14 30 -1 39 -20z m-319 13 c0
-2 -8 -10 -17 -17 -16 -13 -17 -12 -4 4 13 16 21 21 21 13z m-120 -120 c0 -3
-4 -8 -10 -11 -5 -3 -10 -1 -10 4 0 6 5 11 10 11 6 0 10 -2 10 -4z m-66 -66
c-21 -22 -43 -40 -49 -40 -10 1 69 80 80 80 4 0 -10 -18 -31 -40z m1016 -18
c-6 -49 -36 -101 -57 -102 -20 0 -15 24 13 65 14 21 30 49 35 62 13 35 16 28
9 -25z m128 -52 c-17 -28 -33 -48 -35 -46 -7 7 52 96 63 96 2 0 -11 -23 -28
-50z m-1208 5 c0 -2 -10 -9 -22 -15 -22 -11 -22 -10 -4 4 21 17 26 19 26 11z
m1161 -131 c11 -54 24 -103 30 -109 5 -5 9 -16 9 -24 0 -11 -4 -10 -15 5 -14
19 -14 19 -15 0 0 -20 0 -20 -15 0 -8 10 -15 16 -15 12 0 -3 -7 -41 -15 -83
-8 -43 -12 -82 -9 -86 3 -5 3 -9 -1 -9 -3 0 -10 12 -15 26 l-10 26 -20 -24
-20 -23 10 27 c5 15 18 44 28 65 49 96 52 108 32 146 -10 19 -17 45 -14 58 9
42 27 99 31 96 1 -2 12 -48 24 -103z m-866 17 l30 -33 -31 15 c-30 15 -44 35
-44 60 0 7 3 7 8 2 4 -6 21 -25 37 -44z m892 7 c-3 -8 -6 -5 -6 6 -1 11 2 17
5 13 3 -3 4 -12 1 -19z m-1295 -20 c-7 -7 -12 -8 -12 -2 0 14 12 26 19 19 2
-3 -1 -11 -7 -17z m308 -13 c0 -16 -6 -25 -15 -25 -18 0 -20 21 -3 38 17 17
18 16 18 -13z m997 -27 c-3 -7 -5 -2 -5 12 0 14 2 19 5 13 2 -7 2 -19 0 -25z
m-923 -24 c3 -8 2 -12 -4 -9 -6 3 -10 10 -10 16 0 14 7 11 14 -7z m-347 -88
c26 -8 97 -92 84 -100 -15 -10 -59 11 -65 31 -3 10 -21 27 -38 37 l-33 19 29
-31 c16 -18 27 -34 24 -37 -10 -11 -101 30 -116 52 -14 23 -14 23 19 18 33 -5
33 -5 9 7 -14 6 -27 13 -29 15 -2 1 4 14 14 29 l17 26 31 -30 c18 -16 42 -33
54 -36z m151 -19 c0 -23 -7 -67 -17 -97 l-19 -55 -1 62 c-1 34 -4 70 -7 80 -5
15 -4 15 5 3 8 -11 12 -5 17 29 8 50 20 39 22 -22z m302 -27 c0 -5 -5 -10 -11
-10 -5 0 -7 5 -4 10 3 6 8 10 11 10 2 0 4 -4 4 -10z m-658 -32 c-7 -7 -12 -8
-12 -2 0 14 12 26 19 19 2 -3 -1 -11 -7 -17z m-1 -199 c-1 -57 -4 -105 -6
-108 -3 -2 -16 1 -30 7 -16 8 -25 19 -24 34 l0 23 9 -22 c16 -40 40 -28 40 18
0 37 -2 41 -21 36 -21 -6 -21 -3 -17 64 3 38 2 69 -3 69 -5 0 -6 7 -2 16 5 13
10 12 31 -9 23 -23 24 -30 23 -128z m-171 106 c0 -8 -4 -15 -10 -15 -5 0 -10
7 -10 15 0 8 5 15 10 15 6 0 10 -7 10 -15z m1859 -29 c-2 -2 -13 8 -23 22
l-19 27 24 -22 c12 -12 21 -24 18 -27z m-1644 14 c3 -6 -1 -7 -9 -4 -18 7 -21
14 -7 14 6 0 13 -4 16 -10z m219 -15 c3 -8 1 -15 -3 -15 -5 0 -11 7 -15 15 -3
8 -1 15 3 15 5 0 11 -7 15 -15z m69 -65 l15 -29 -23 15 c-14 9 -21 22 -18 30
7 19 9 18 26 -16z m1407 -20 c0 -60 -16 -88 -70 -124 -43 -28 -50 -31 -50 -18
0 5 16 17 36 28 49 26 77 74 72 124 -2 22 0 40 4 40 5 0 8 -23 8 -50z m-1485
-10 c3 -6 -1 -7 -9 -4 -18 7 -21 14 -7 14 6 0 13 -4 16 -10z m140 -70 c3 -5 1
-10 -4 -10 -6 0 -11 5 -11 10 0 6 2 10 4 10 3 0 8 -4 11 -10z m1155 -94 c0 -2
-16 -13 -35 -25 -29 -17 -35 -18 -35 -5 0 8 10 19 23 24 24 9 47 13 47 6z
m-654 -64 c-7 -7 -66 9 -66 18 0 4 16 3 35 -3 19 -6 33 -12 31 -15z m44 -2
c-20 -13 -33 -13 -25 0 3 6 14 10 23 10 15 0 15 -2 2 -10z m429 -4 c-2 -2 -22
-6 -44 -10 -29 -5 -36 -4 -25 3 13 10 79 16 69 7z m-392 -12 c-3 -3 -12 -4
-19 -1 -8 3 -5 6 6 6 11 1 17 -2 13 -5z m228 -15 c-41 -8 -163 -1 -169 10 -2
3 44 4 102 2 87 -3 100 -5 67 -12z"/>
<path d="M2437 1433 c8 -50 13 -55 13 -10 0 20 -4 38 -9 42 -6 3 -7 -10 -4
-32z"/>
<path d="M2344 1426 c-8 -22 3 -49 19 -43 6 2 12 14 12 27 0 27 -22 39 -31 16z
m18 -28 c-7 -7 -12 -8 -12 -2 0 6 3 14 7 17 3 4 9 5 12 2 2 -3 -1 -11 -7 -17z"/>
<path d="M2418 1258 c9 -9 15 -9 24 0 9 9 7 12 -12 12 -19 0 -21 -3 -12 -12z"/>
<path d="M2290 1152 c0 -5 10 -17 21 -28 22 -19 22 -19 10 3 -12 24 -31 39
-31 25z"/>
<path d="M2391 944 c0 -11 3 -14 6 -6 3 7 2 16 -1 19 -3 4 -6 -2 -5 -13z"/>
<path d="M2423 922 c-7 -4 -9 -13 -4 -21 6 -9 10 -7 14 8 3 12 4 21 4 21 -1 0
-7 -4 -14 -8z"/>
<path d="M2473 918 c5 -13 1 -18 -13 -18 -11 0 -20 -4 -20 -10 0 -5 5 -10 10
-10 6 0 9 -3 9 -7 -3 -19 3 -47 8 -35 2 6 9 10 14 6 12 -7 11 7 -1 26 -5 9 -5
19 2 28 8 9 8 16 -2 25 -10 10 -12 9 -7 -5z"/>
<path d="M2307 867 c-4 -13 29 -87 39 -87 4 0 3 12 0 26 -4 14 -2 32 3 38 8
10 4 16 -13 24 -19 8 -26 8 -29 -1z"/>
<path d="M2416 854 c-8 -21 -8 -34 2 -34 4 0 8 11 8 25 2 29 -1 32 -10 9z"/>
<path d="M2599 855 c-1 -3 -2 -8 -3 -12 -1 -5 -4 -13 -8 -18 -9 -14 8 -42 19
-32 4 5 1 12 -6 16 -11 7 -8 12 10 21 17 10 24 10 27 1 2 -6 13 -11 25 -11 17
0 13 4 -16 20 -39 21 -46 23 -48 15z"/>
<path d="M2750 815 c0 -5 5 -17 10 -25 5 -8 10 -10 10 -5 0 6 -5 17 -10 25 -5
8 -10 11 -10 5z"/>
<path d="M2725 800 c-3 -5 -1 -10 4 -10 6 0 11 5 11 10 0 6 -2 10 -4 10 -3 0
-8 -4 -11 -10z"/>
<path d="M1670 870 c0 -11 2 -20 4 -20 2 0 6 9 9 20 3 11 1 20 -4 20 -5 0 -9
-9 -9 -20z"/>
<path d="M757 2149 c7 -7 15 -10 18 -7 3 3 -2 9 -12 12 -14 6 -15 5 -6 -5z"/>
<path d="M1390 2155 c0 -5 5 -17 10 -25 5 -8 10 -10 10 -5 0 6 -5 17 -10 25
-5 8 -10 11 -10 5z"/>
<path d="M483 2094 c-34 -76 -41 -170 -19 -248 15 -49 21 -58 58 -76 23 -11
46 -20 50 -20 13 0 70 -68 96 -114 19 -34 23 -52 19 -106 -3 -59 -2 -62 9 -35
l13 30 2 -30 c1 -16 1 -40 1 -53 -1 -12 3 -20 8 -17 14 9 12 74 -5 156 l-15
72 37 76 c39 81 51 167 26 192 -10 10 -11 2 -7 -37 3 -27 1 -62 -3 -78 l-9
-29 -19 29 c-22 31 -27 126 -13 234 4 30 5 46 2 35 -3 -11 -8 -27 -11 -35 -3
-8 -5 -20 -4 -27 1 -6 -3 -14 -9 -18 -5 -3 -10 -17 -10 -29 0 -24 -21 -36 -64
-36 -15 0 -16 3 -6 15 18 22 7 28 -24 14 -34 -16 -68 -72 -77 -124 l-6 -40
-18 40 c-28 64 -25 166 7 245 34 81 27 93 -9 14z"/>
<path d="M1410 2101 c0 -6 4 -13 10 -16 6 -3 7 1 4 9 -7 18 -14 21 -14 7z"/>
<path d="M1492 2004 c16 -18 78 -59 78 -51 0 2 -21 19 -47 37 -27 19 -40 25
-31 14z"/>
<path d="M639 1973 c-13 -16 -12 -17 4 -4 9 7 17 15 17 17 0 8 -8 3 -21 -13z"/>
<path d="M4495 1766 c-193 -71 -342 -155 -386 -218 -18 -25 -9 -20 37 22 33
31 85 68 115 82 94 47 191 88 187 80 -62 -135 -141 -250 -222 -322 -64 -57
-229 -160 -256 -160 -6 0 -10 -5 -10 -11 0 -30 131 40 253 137 93 73 109 90
159 175 30 52 63 111 73 132 21 46 55 74 106 87 21 6 41 15 44 20 9 14 0 12
-100 -24z"/>
<path d="M3808 1753 c18 -2 45 -2 60 0 15 2 0 4 -33 4 -33 0 -45 -2 -27 -4z"/>
<path d="M3481 1734 c0 -11 3 -14 6 -6 3 7 2 16 -1 19 -3 4 -6 -2 -5 -13z"/>
<path d="M3471 1694 c0 -11 3 -14 6 -6 3 7 2 16 -1 19 -3 4 -6 -2 -5 -13z"/>
<path d="M3895 1670 c-10 -11 -16 -22 -14 -24 2 -2 12 7 22 20 22 29 17 32 -8
4z"/>
<path d="M3844 1535 c6 -19 13 -30 14 -25 6 16 -7 60 -17 60 -4 0 -3 -16 3
-35z"/>
<path d="M740 1502 c0 -15 25 -62 33 -62 10 0 9 7 -8 40 -15 29 -25 38 -25 22z"/>
<path d="M659 1443 c-13 -16 -12 -17 4 -4 9 7 17 15 17 17 0 8 -8 3 -21 -13z"/>
<path d="M808 1413 c7 -3 16 -2 19 1 4 3 -2 6 -13 5 -11 0 -14 -3 -6 -6z"/>
<path d="M494 1312 c-57 -55 -95 -126 -120 -228 -9 -38 -18 -71 -20 -73 -9
-10 -34 25 -40 55 -8 42 -14 38 -21 -13 -6 -40 -38 -93 -104 -169 -81 -93
-158 -234 -159 -289 -1 -29 -1 -29 -15 -11 -15 19 -15 19 -15 -3 0 -48 79
-121 130 -121 29 0 20 24 -11 28 -13 2 -37 16 -52 30 -26 24 -28 32 -24 74 3
26 16 66 29 90 l22 43 7 -40 c13 -83 76 -247 105 -274 16 -14 21 -17 12 -6
-33 40 -99 237 -84 252 2 2 11 -3 20 -12 10 -11 16 -12 16 -4 0 6 9 20 21 29
l20 18 -20 7 c-12 3 -21 13 -21 20 0 8 6 12 13 10 19 -7 41 11 34 29 -8 19
-45 16 -58 -5 -7 -11 -9 -11 -9 -1 0 7 -5 10 -11 6 -7 -4 -10 -1 -7 7 3 8 10
15 16 15 7 1 16 2 21 3 5 0 7 10 4 20 -5 21 43 94 57 86 4 -3 17 14 28 38 36
74 46 84 75 68 17 -9 26 -24 30 -50 9 -70 105 -180 170 -196 15 -4 27 -5 27
-3 0 3 -28 27 -61 53 -74 58 -96 100 -78 152 6 19 9 37 6 39 -3 3 -8 -8 -12
-25 -20 -92 -44 1 -27 104 16 93 70 201 127 254 24 22 41 41 37 41 -4 0 -30
-22 -58 -48z"/>
<path d="M4517 1290 c-43 -21 -87 -46 -97 -55 -11 -10 -59 -31 -106 -46 -70
-22 -100 -27 -158 -24 -67 4 -69 4 -26 -6 74 -17 257 -22 307 -9 24 7 42 15
39 17 -2 2 -23 -1 -46 -7 -26 -7 -63 -9 -94 -4 l-51 7 40 13 c22 7 67 20 100
30 33 9 55 19 48 21 -7 2 -21 -1 -32 -7 -12 -6 -21 -8 -21 -5 0 4 38 24 84 45
75 35 105 55 95 64 -2 2 -39 -13 -82 -34z"/>
<path d="M4580 1215 c-8 -8 -33 -21 -55 -29 -22 -8 -34 -15 -26 -15 20 -1 101
39 101 50 0 12 -3 11 -20 -6z"/>
<path d="M3875 1181 c-4 -18 -21 -39 -46 -57 -22 -15 -37 -29 -35 -32 3 -2 25
9 49 26 57 38 80 45 117 37 29 -6 29 -7 13 -33 l-17 -27 30 28 c20 18 41 27
64 27 18 0 31 2 29 5 -8 8 -82 18 -135 18 -45 0 -51 3 -46 19 2 10 0 18 -6 18
-6 0 -13 -13 -17 -29z"/>
<path d="M4563 1086 c-62 -52 -217 -126 -348 -166 -33 -10 -53 -19 -45 -19 8
-1 44 8 79 19 36 11 67 18 69 16 4 -5 -75 -64 -161 -120 -80 -53 -81 -63 0
-16 37 22 69 38 71 35 2 -2 -1 -19 -7 -37 -6 -18 -15 -64 -21 -102 -7 -43 -26
-101 -50 -150 -36 -74 -33 -77 12 -13 16 23 77 43 166 53 95 11 188 51 232
100 l25 28 -34 -28 c-48 -38 -109 -65 -172 -75 -30 -5 -56 -7 -58 -5 -8 8 35
90 73 139 l39 50 -51 -49 c-28 -27 -56 -63 -63 -80 -18 -45 -39 -66 -66 -66
-13 0 -33 -5 -45 -11 -28 -15 -32 -6 -14 29 8 16 25 76 36 133 19 93 25 107
53 129 17 14 41 35 52 48 11 13 48 37 83 52 67 31 182 107 182 121 0 14 -6 11
-37 -15z"/>
<path d="M709 1023 c-13 -20 -46 -52 -74 -71 -60 -40 -70 -59 -22 -39 30 13
37 13 49 1 8 -8 24 -16 36 -17 21 -1 32 -27 12 -27 -5 0 -10 -23 -10 -52 l0
-52 -27 26 c-28 26 -73 43 -73 28 0 -4 16 -17 35 -29 43 -25 72 -72 81 -130 6
-40 8 -43 16 -22 5 14 4 39 -3 63 -10 40 -4 139 11 168 6 12 -1 22 -28 40 -20
13 -39 25 -41 27 -2 1 8 16 23 34 32 38 60 89 48 89 -5 0 -20 -17 -33 -37z"/>
<path d="M3731 1036 c-7 -8 -20 -36 -30 -63 -12 -34 -23 -49 -41 -54 l-25 -7
27 -1 c22 -1 29 -8 37 -33 l9 -33 1 42 c1 23 10 67 22 98 21 58 21 77 0 51z"/>
<path d="M1020 1018 c-12 -22 -12 -22 6 -6 10 10 15 20 12 24 -4 3 -12 -5 -18
-18z"/>
<path d="M1046 974 c-4 -9 -4 -19 -1 -22 2 -3 7 3 11 12 4 9 4 19 1 22 -2 3
-7 -3 -11 -12z"/>
<path d="M327 973 c-4 -3 -7 -11 -7 -17 0 -6 5 -5 12 2 6 6 9 14 7 17 -3 3 -9
2 -12 -2z"/>
<path d="M898 910 c-15 -15 -42 -32 -60 -38 l-33 -11 35 5 c19 4 49 16 65 29
29 21 33 22 59 8 23 -12 38 -13 70 -5 l41 9 -47 0 c-31 -1 -53 4 -66 16 -24
22 -31 20 -64 -13z"/>
<path d="M3502 906 c-36 -21 -38 -27 -4 -15 18 6 32 15 32 20 0 5 -1 9 -2 8
-2 -1 -13 -7 -26 -13z"/>
<path d="M3565 905 c-16 -8 -23 -14 -15 -14 8 0 26 6 40 14 32 18 15 18 -25 0z"/>
<path d="M4555 863 c-22 -7 -51 -22 -65 -33 -24 -19 -22 -19 35 2 60 21 83 34
74 41 -2 3 -22 -2 -44 -10z"/>
<path d="M232 733 c-11 -63 -1 -89 19 -52 7 13 12 27 11 32 -1 4 3 7 8 7 12 0
9 37 -3 58 -16 24 -25 11 -35 -45z"/>
<path d="M3751 772 c25 -18 79 -44 79 -38 0 5 -87 56 -96 56 -4 0 4 -8 17 -18z"/>
<path d="M420 743 c0 -4 9 -16 19 -27 20 -21 20 -21 -5 -21 -18 0 -24 5 -24
23 0 12 -4 22 -10 22 -5 0 -10 -9 -10 -20 0 -11 -7 -23 -15 -26 -13 -5 -13 -9
-3 -22 11 -13 9 -14 -12 -9 -14 4 -19 4 -12 1 6 -3 10 -10 6 -15 -3 -5 3 -9
13 -9 17 -1 17 -2 -1 -15 -11 -8 -14 -15 -8 -15 7 0 12 -7 12 -15 0 -18 30
-20 31 -2 1 6 0 22 0 33 -1 12 5 24 13 27 18 7 21 -4 5 -20 -8 -8 -8 -13 0
-17 6 -4 11 -4 11 -1 0 3 10 -1 22 -9 31 -22 36 -20 34 9 -1 22 -5 25 -24 20
-21 -5 -23 -3 -17 17 4 13 14 30 21 39 12 14 11 17 -11 29 -13 7 -22 17 -19
22 3 4 0 8 -5 8 -6 0 -11 -3 -11 -7z"/>
<path d="M925 730 c4 -6 16 -10 26 -7 26 7 24 -1 -6 -25 -21 -16 -45 -71 -45
-104 0 -6 11 -28 25 -48 30 -44 27 -53 -20 -62 -19 -3 -35 -10 -35 -15 0 -12
62 1 81 18 23 20 44 -7 36 -47 -9 -41 -56 -110 -76 -110 -26 0 -124 84 -128
110 -2 13 -5 25 -7 27 -2 2 -30 -5 -62 -15 -33 -11 -74 -23 -92 -27 -29 -6
-33 -5 -30 11 2 10 19 29 38 42 55 37 57 55 3 24 -28 -16 -54 -40 -61 -57 -31
-69 -110 -92 -183 -55 -43 22 -126 100 -182 170 l-28 35 23 -45 c50 -96 184
-200 259 -200 16 0 29 -3 29 -6 0 -14 -54 -74 -68 -74 -20 0 -109 55 -151 94
l-35 31 39 -48 c21 -26 60 -60 87 -75 43 -24 48 -30 42 -52 -10 -34 -9 -49 12
-187 3 -19 11 -33 19 -33 11 0 12 7 4 32 -14 49 -11 54 14 30 24 -22 67 -30
67 -12 0 6 -11 10 -23 10 -27 0 -46 19 -70 73 -19 42 -15 55 37 142 51 84 80
110 147 129 35 10 83 24 107 31 23 7 42 9 42 4 0 -4 -25 -32 -56 -61 -95 -90
-184 -214 -184 -258 0 -64 6 -68 79 -63 67 5 68 4 94 -29 15 -18 27 -28 27
-21 0 7 -10 24 -23 39 -18 21 -32 27 -67 27 -25 1 -51 -1 -58 -3 -8 -3 -19 2
-25 12 -16 24 6 86 50 143 54 69 173 191 173 178 0 -7 26 -29 58 -49 31 -21
59 -39 61 -41 2 -1 -8 -17 -22 -36 -35 -46 -57 -103 -57 -146 0 -58 64 -151
87 -127 4 4 0 13 -9 20 -10 7 -27 34 -39 60 -22 50 -20 85 8 141 15 28 109
136 125 143 10 5 -2 -60 -13 -72 -14 -16 -10 -24 9 -22 13 2 17 13 17 52 0 27
3 54 8 61 4 6 4 19 1 30 -6 15 -4 16 7 6 7 -7 23 -13 36 -13 21 0 23 4 21 43
l-1 42 -4 -37 c-7 -60 -56 -40 -56 22 0 16 -3 27 -6 26 -15 -10 -63 44 -71 80
-13 53 -12 55 11 84 11 14 17 19 13 11 -5 -11 -1 -10 17 2 13 9 36 17 51 17
40 0 43 17 3 24 -108 19 -108 19 -100 6z"/>
<path d="M520 720 c-13 -8 -12 -10 3 -10 9 0 17 5 17 10 0 12 -1 12 -20 0z"/>
<path d="M3833 713 c-30 -6 -83 -59 -83 -83 0 -13 -5 -17 -14 -14 -23 9 -91
-14 -113 -38 -11 -13 -29 -36 -38 -53 -15 -24 -9 -21 31 18 43 41 57 48 99 51
47 4 50 6 47 29 -3 21 5 30 43 52 31 19 55 26 75 23 35 -5 40 7 8 16 -13 3
-25 5 -28 5 -3 -1 -15 -4 -27 -6z"/>
<path d="M285 700 c-3 -5 1 -10 9 -10 9 0 16 5 16 10 0 6 -4 10 -9 10 -6 0
-13 -4 -16 -10z"/>
<path d="M1125 690 c-13 -6 -15 -9 -5 -9 8 0 22 4 30 9 18 12 2 12 -25 0z"/>
<path d="M3969 628 c-21 -40 -39 -122 -29 -132 7 -7 10 1 10 22 0 17 9 54 19
82 20 52 20 65 0 28z"/>
<path d="M4570 563 c-32 -62 -155 -146 -239 -164 -31 -7 -49 -14 -39 -16 15
-4 15 -9 -3 -70 -23 -83 -68 -157 -141 -238 l-57 -62 37 12 c33 12 40 11 65
-7 26 -19 30 -19 67 -4 36 14 41 14 55 0 21 -21 29 -13 11 12 -13 16 -19 17
-55 8 -34 -9 -47 -8 -74 5 l-33 16 54 69 c59 77 70 100 96 197 l18 66 57 17
c111 34 216 125 209 181 -3 23 -5 21 -28 -22z"/>
<path d="M384 561 c7 -11 66 -20 66 -10 0 4 -7 10 -16 13 -24 9 -56 7 -50 -3z"/>
<path d="M3950 431 c0 -8 8 -23 17 -33 14 -16 15 -22 5 -39 -12 -19 -11 -19
10 -8 21 11 22 11 10 -4 -7 -8 -31 -25 -53 -36 -34 -18 -39 -19 -39 -5 0 12
-14 4 -45 -25 -24 -22 -49 -41 -55 -41 -5 0 -11 17 -11 38 -2 36 -2 36 -8 7
-11 -54 -69 -134 -104 -143 -28 -8 -36 -5 -59 20 -33 33 -33 33 -13 88 19 54
19 57 -4 36 -27 -25 -36 -92 -15 -123 16 -26 7 -25 -26 2 -8 7 -26 16 -40 20
-17 5 -12 -2 17 -21 32 -21 45 -37 49 -61 9 -47 -6 -59 -94 -80 -63 -14 -71
-18 -44 -21 46 -5 139 25 152 48 5 10 10 30 10 44 0 23 3 24 35 19 28 -4 42 0
70 21 19 15 38 37 41 50 4 18 14 25 38 28 28 3 32 1 28 -15 -2 -10 -22 -27
-44 -38 -28 -14 -45 -33 -59 -62 -20 -45 -25 -97 -9 -97 6 0 10 14 10 31 0 54
43 114 91 124 17 4 26 11 23 19 -7 18 22 39 45 33 14 -3 18 -1 14 10 -9 24 17
59 58 77 21 10 39 21 39 26 0 4 11 18 24 31 18 18 22 27 14 36 -8 10 -14 10
-24 2 -10 -8 -18 -3 -34 23 -11 18 -20 27 -20 19z m-70 -186 c0 -8 -4 -15 -10
-15 -5 0 -7 7 -4 15 4 8 8 15 10 15 2 0 4 -7 4 -15z"/>
<path d="M4194 344 c-18 -14 -18 -15 4 -4 12 6 22 13 22 15 0 8 -5 6 -26 -11z"/>
<path d="M2308 303 c12 -2 22 -8 22 -12 0 -5 12 -6 28 -3 l27 6 -25 7 c-14 4
-36 7 -50 7 -23 -1 -23 -1 -2 -5z"/>
<path d="M2300 280 c-9 -6 -10 -10 -3 -10 6 0 15 5 18 10 8 12 4 12 -15 0z"/>
<path d="M4021 204 c-28 -20 -61 -89 -60 -124 1 -20 2 -21 6 -5 13 57 27 87
55 114 35 34 35 40 -1 15z"/>
<path d="M4540 184 c-17 -15 -40 -46 -51 -70 -11 -23 -36 -59 -55 -78 l-35
-36 35 0 c19 0 38 4 41 10 3 5 19 10 34 10 15 0 36 7 47 15 18 14 17 14 -9 5
-43 -15 -45 -12 -11 18 17 15 39 41 49 57 16 25 10 22 -31 -16 -27 -26 -60
-52 -74 -59 l-25 -13 22 24 c11 13 29 42 40 64 10 22 32 49 50 60 18 11 32 23
33 28 0 15 -30 6 -60 -19z"/>
<path d="M1128 173 c7 -3 16 -2 19 1 4 3 -2 6 -13 5 -11 0 -14 -3 -6 -6z"/>
<path d="M1085 160 c-16 -7 -17 -9 -3 -9 9 -1 20 4 23 9 7 11 7 11 -20 0z"/>
<path d="M1053 125 c-3 -9 -3 -18 -1 -21 3 -3 8 4 11 16 6 23 -1 27 -10 5z"/>
<path d="M2433 113 c32 -2 81 -2 110 0 29 2 3 3 -58 3 -60 0 -84 -1 -52 -3z"/>
<path d="M2708 103 c7 -3 16 -2 19 1 4 3 -2 6 -13 5 -11 0 -14 -3 -6 -6z"/>
<path d="M910 92 c0 -27 66 -82 98 -82 17 0 37 -3 46 -6 9 -3 16 -1 16 5 0 6
-18 11 -41 11 -51 0 -75 13 -99 53 -11 18 -20 26 -20 19z"/>
<path d="M2170 10 c13 -9 109 -15 99 -6 -2 2 -29 6 -59 10 -38 4 -50 3 -40 -4z"/>
</g>
</svg>
