<?xml version="1.0" standalone="no"?>
<!DOCTYPE svg PUBLIC "-//W3C//DTD SVG 20010904//EN"
 "http://www.w3.org/TR/2001/REC-SVG-20010904/DTD/svg10.dtd">
<svg version="1.0" xmlns="http://www.w3.org/2000/svg"
 width="512.000000pt" height="512.000000pt" viewBox="0 0 512.000000 512.000000"
 preserveAspectRatio="xMidYMid meet">
<metadata>
Created by potrace 1.11, written by Peter Selinger 2001-2013
</metadata>
<g transform="translate(0.000000,512.000000) scale(0.100000,-0.100000)"
fill="#000000" stroke="none">
<path d="M2361 4469 c-433 -46 -846 -243 -1157 -553 -749 -750 -749 -1962 1
-2711 455 -456 1111 -653 1740 -524 207 42 445 137 624 247 95 59 270 193 318
244 l33 34 -424 423 -424 424 -54 -47 c-29 -26 -93 -67 -143 -91 -207 -101
-424 -100 -635 2 -80 39 -108 59 -186 137 -78 78 -98 105 -137 186 -104 217
-104 423 0 640 66 137 186 257 323 323 97 46 208 77 279 77 34 0 41 4 45 23 8
33 126 1118 126 1150 l0 27 -122 -1 c-68 -1 -161 -6 -207 -10z"/>
</g>
</svg>
