<svg width="1075" height="1097" viewBox="0 0 1075 1097" fill="none" xmlns="http://www.w3.org/2000/svg">
<g clip-path="url(#clip0_102_2)">
<circle cx="130" cy="340" r="15" fill="white"/>
<circle cx="186" cy="340" r="15" fill="white"/>
<circle cx="242" cy="340" r="15" fill="white"/>
<circle cx="298" cy="340" r="15" fill="white"/>
<circle cx="354" cy="340" r="15" fill="white"/>
<circle cx="410" cy="340" r="15" fill="white"/>
<circle cx="466" cy="340" r="15" fill="white"/>
<circle cx="522" cy="340" r="15" fill="white"/>
<circle cx="578" cy="340" r="15" fill="white"/>
<circle cx="634" cy="340" r="15" fill="white"/>
<circle cx="690" cy="340" r="15" fill="white"/>
<circle cx="746" cy="340" r="15" fill="white"/>
<circle cx="802" cy="340" r="15" fill="white"/>
<circle cx="858" cy="340" r="15" fill="white"/>
<circle cx="914" cy="340" r="15" fill="white"/>
<circle cx="970" cy="340" r="15" fill="white"/>
<circle cx="1082" cy="340" r="15" fill="white"/>
<circle cx="1026" cy="340" r="15" fill="white"/>
<circle cx="20" cy="18" r="15" fill="white"/>
<circle cx="76" cy="18" r="15" fill="white"/>
<circle cx="132" cy="18" r="15" fill="white"/>
<circle cx="188" cy="18" r="15" fill="white"/>
<circle cx="244" cy="18" r="15" fill="white"/>
<circle cx="300" cy="18" r="15" fill="white"/>
<circle cx="356" cy="18" r="15" fill="white"/>
<circle cx="412" cy="18" r="15" fill="white"/>
<circle cx="468" cy="18" r="15" fill="white"/>
<circle cx="524" cy="18" r="15" fill="white"/>
<circle cx="580" cy="18" r="15" fill="white"/>
<circle cx="636" cy="18" r="15" fill="white"/>
<circle cx="692" cy="18" r="15" fill="white"/>
<circle cx="748" cy="18" r="15" fill="white"/>
<circle cx="804" cy="18" r="15" fill="white"/>
<circle cx="860" cy="18" r="15" fill="white"/>
<circle cx="972" cy="18" r="15" fill="white"/>
<circle cx="916" cy="18" r="15" fill="white"/>
<circle cx="156" cy="64" r="15" fill="white"/>
<circle cx="212" cy="64" r="15" fill="white"/>
<circle cx="268" cy="64" r="15" fill="white"/>
<circle cx="324" cy="64" r="15" fill="white"/>
<circle cx="380" cy="64" r="15" fill="white"/>
<circle cx="436" cy="64" r="15" fill="white"/>
<circle cx="492" cy="64" r="15" fill="white"/>
<circle cx="548" cy="64" r="15" fill="white"/>
<circle cx="604" cy="64" r="15" fill="white"/>
<circle cx="660" cy="64" r="15" fill="white"/>
<circle cx="716" cy="64" r="15" fill="white"/>
<circle cx="772" cy="64" r="15" fill="white"/>
<circle cx="828" cy="64" r="15" fill="white"/>
<circle cx="884" cy="64" r="15" fill="white"/>
<circle cx="940" cy="64" r="15" fill="white"/>
<circle cx="996" cy="64" r="15" fill="white"/>
<circle cx="1052" cy="64" r="15" fill="white"/>
<circle cx="72" cy="110" r="15" fill="white"/>
<circle cx="128" cy="110" r="15" fill="white"/>
<circle cx="184" cy="110" r="15" fill="white"/>
<circle cx="240" cy="110" r="15" fill="white"/>
<circle cx="296" cy="110" r="15" fill="white"/>
<circle cx="352" cy="110" r="15" fill="white"/>
<circle cx="408" cy="110" r="15" fill="white"/>
<circle cx="464" cy="110" r="15" fill="white"/>
<circle cx="520" cy="110" r="15" fill="white"/>
<circle cx="576" cy="110" r="15" fill="white"/>
<circle cx="632" cy="110" r="15" fill="white"/>
<circle cx="688" cy="110" r="15" fill="white"/>
<circle cx="744" cy="110" r="15" fill="white"/>
<circle cx="800" cy="110" r="15" fill="white"/>
<circle cx="856" cy="110" r="15" fill="white"/>
<circle cx="912" cy="110" r="15" fill="white"/>
<circle cx="1024" cy="110" r="15" fill="white"/>
<circle cx="968" cy="110" r="15" fill="white"/>
<circle cx="156" cy="156" r="15" fill="white"/>
<circle cx="212" cy="156" r="15" fill="white"/>
<circle cx="268" cy="156" r="15" fill="white"/>
<circle cx="324" cy="156" r="15" fill="white"/>
<circle cx="380" cy="156" r="15" fill="white"/>
<circle cx="436" cy="156" r="15" fill="white"/>
<circle cx="492" cy="156" r="15" fill="white"/>
<circle cx="548" cy="156" r="15" fill="white"/>
<circle cx="604" cy="156" r="15" fill="white"/>
<circle cx="660" cy="156" r="15" fill="white"/>
<circle cx="716" cy="156" r="15" fill="white"/>
<circle cx="772" cy="156" r="15" fill="white"/>
<circle cx="828" cy="156" r="15" fill="white"/>
<circle cx="884" cy="156" r="15" fill="white"/>
<circle cx="940" cy="156" r="15" fill="white"/>
<circle cx="996" cy="156" r="15" fill="white"/>
<circle cx="1052" cy="156" r="15" fill="white"/>
<circle cx="87" cy="248" r="15" fill="white"/>
<circle cx="143" cy="248" r="15" fill="white"/>
<circle cx="199" cy="248" r="15" fill="white"/>
<circle cx="255" cy="248" r="15" fill="white"/>
<circle cx="311" cy="248" r="15" fill="white"/>
<circle cx="367" cy="248" r="15" fill="white"/>
<circle cx="423" cy="248" r="15" fill="white"/>
<circle cx="479" cy="248" r="15" fill="white"/>
<circle cx="535" cy="248" r="15" fill="white"/>
<circle cx="591" cy="248" r="15" fill="white"/>
<circle cx="647" cy="248" r="15" fill="white"/>
<circle cx="703" cy="248" r="15" fill="white"/>
<circle cx="759" cy="248" r="15" fill="white"/>
<circle cx="815" cy="248" r="15" fill="white"/>
<circle cx="871" cy="248" r="15" fill="white"/>
<circle cx="927" cy="248" r="15" fill="white"/>
<circle cx="1039" cy="248" r="15" fill="white"/>
<circle cx="983" cy="248" r="15" fill="white"/>
<circle cx="171" cy="294" r="15" fill="white"/>
<circle cx="227" cy="294" r="15" fill="white"/>
<circle cx="283" cy="294" r="15" fill="white"/>
<circle cx="339" cy="294" r="15" fill="white"/>
<circle cx="395" cy="294" r="15" fill="white"/>
<circle cx="451" cy="294" r="15" fill="white"/>
<circle cx="507" cy="294" r="15" fill="white"/>
<circle cx="563" cy="294" r="15" fill="white"/>
<circle cx="619" cy="294" r="15" fill="white"/>
<circle cx="675" cy="294" r="15" fill="white"/>
<circle cx="731" cy="294" r="15" fill="white"/>
<circle cx="787" cy="294" r="15" fill="white"/>
<circle cx="843" cy="294" r="15" fill="white"/>
<circle cx="899" cy="294" r="15" fill="white"/>
<circle cx="955" cy="294" r="15" fill="white"/>
<circle cx="1011" cy="294" r="15" fill="white"/>
<circle cx="1067" cy="294" r="15" fill="white"/>
<circle cx="44" cy="386" r="15" fill="white"/>
<circle cx="100" cy="386" r="15" fill="white"/>
<circle cx="156" cy="386" r="15" fill="white"/>
<circle cx="212" cy="386" r="15" fill="white"/>
<circle cx="268" cy="386" r="15" fill="white"/>
<circle cx="324" cy="386" r="15" fill="white"/>
<circle cx="380" cy="386" r="15" fill="white"/>
<circle cx="436" cy="386" r="15" fill="white"/>
<circle cx="492" cy="386" r="15" fill="white"/>
<circle cx="548" cy="386" r="15" fill="white"/>
<circle cx="604" cy="386" r="15" fill="white"/>
<circle cx="660" cy="386" r="15" fill="white"/>
<circle cx="716" cy="386" r="15" fill="white"/>
<circle cx="772" cy="386" r="15" fill="white"/>
<circle cx="828" cy="386" r="15" fill="white"/>
<circle cx="884" cy="386" r="15" fill="white"/>
<circle cx="996" cy="386" r="15" fill="white"/>
<circle cx="940" cy="386" r="15" fill="white"/>
<circle cx="119" cy="202" r="15" fill="white"/>
<circle cx="175" cy="202" r="15" fill="white"/>
<circle cx="231" cy="202" r="15" fill="white"/>
<circle cx="287" cy="202" r="15" fill="white"/>
<circle cx="343" cy="202" r="15" fill="white"/>
<circle cx="399" cy="202" r="15" fill="white"/>
<circle cx="455" cy="202" r="15" fill="white"/>
<circle cx="511" cy="202" r="15" fill="white"/>
<circle cx="567" cy="202" r="15" fill="white"/>
<circle cx="623" cy="202" r="15" fill="white"/>
<circle cx="679" cy="202" r="15" fill="white"/>
<circle cx="735" cy="202" r="15" fill="white"/>
<circle cx="791" cy="202" r="15" fill="white"/>
<circle cx="847" cy="202" r="15" fill="white"/>
<circle cx="903" cy="202" r="15" fill="white"/>
<circle cx="959" cy="202" r="15" fill="white"/>
<circle cx="1071" cy="202" r="15" fill="white"/>
<circle cx="1015" cy="202" r="15" fill="white"/>
<circle cx="130" cy="340" r="15" fill="white"/>
<circle cx="186" cy="340" r="15" fill="white"/>
<circle cx="242" cy="340" r="15" fill="white"/>
<circle cx="298" cy="340" r="15" fill="white"/>
<circle cx="354" cy="340" r="15" fill="white"/>
<circle cx="410" cy="340" r="15" fill="white"/>
<circle cx="466" cy="340" r="15" fill="white"/>
<circle cx="522" cy="340" r="15" fill="white"/>
<circle cx="578" cy="340" r="15" fill="white"/>
<circle cx="634" cy="340" r="15" fill="white"/>
<circle cx="690" cy="340" r="15" fill="white"/>
<circle cx="746" cy="340" r="15" fill="white"/>
<circle cx="802" cy="340" r="15" fill="white"/>
<circle cx="858" cy="340" r="15" fill="white"/>
<circle cx="914" cy="340" r="15" fill="white"/>
<circle cx="970" cy="340" r="15" fill="white"/>
<circle cx="1082" cy="340" r="15" fill="white"/>
<circle cx="1026" cy="340" r="15" fill="white"/>
<circle cx="20" cy="18" r="15" fill="white"/>
<circle cx="76" cy="18" r="15" fill="white"/>
<circle cx="132" cy="18" r="15" fill="white"/>
<circle cx="188" cy="18" r="15" fill="white"/>
<circle cx="244" cy="18" r="15" fill="white"/>
<circle cx="300" cy="18" r="15" fill="white"/>
<circle cx="356" cy="18" r="15" fill="white"/>
<circle cx="412" cy="18" r="15" fill="white"/>
<circle cx="468" cy="18" r="15" fill="white"/>
<circle cx="524" cy="18" r="15" fill="white"/>
<circle cx="580" cy="18" r="15" fill="white"/>
<circle cx="636" cy="18" r="15" fill="white"/>
<circle cx="692" cy="18" r="15" fill="white"/>
<circle cx="748" cy="18" r="15" fill="white"/>
<circle cx="804" cy="18" r="15" fill="white"/>
<circle cx="860" cy="18" r="15" fill="white"/>
<circle cx="972" cy="18" r="15" fill="white"/>
<circle cx="916" cy="18" r="15" fill="white"/>
<circle cx="156" cy="64" r="15" fill="white"/>
<circle cx="212" cy="64" r="15" fill="white"/>
<circle cx="268" cy="64" r="15" fill="white"/>
<circle cx="324" cy="64" r="15" fill="white"/>
<circle cx="380" cy="64" r="15" fill="white"/>
<circle cx="436" cy="64" r="15" fill="white"/>
<circle cx="492" cy="64" r="15" fill="white"/>
<circle cx="548" cy="64" r="15" fill="white"/>
<circle cx="604" cy="64" r="15" fill="white"/>
<circle cx="660" cy="64" r="15" fill="white"/>
<circle cx="716" cy="64" r="15" fill="white"/>
<circle cx="772" cy="64" r="15" fill="white"/>
<circle cx="828" cy="64" r="15" fill="white"/>
<circle cx="884" cy="64" r="15" fill="white"/>
<circle cx="940" cy="64" r="15" fill="white"/>
<circle cx="996" cy="64" r="15" fill="white"/>
<circle cx="1052" cy="64" r="15" fill="white"/>
<circle cx="72" cy="110" r="15" fill="white"/>
<circle cx="128" cy="110" r="15" fill="white"/>
<circle cx="184" cy="110" r="15" fill="white"/>
<circle cx="240" cy="110" r="15" fill="white"/>
<circle cx="296" cy="110" r="15" fill="white"/>
<circle cx="352" cy="110" r="15" fill="white"/>
<circle cx="408" cy="110" r="15" fill="white"/>
<circle cx="464" cy="110" r="15" fill="white"/>
<circle cx="520" cy="110" r="15" fill="white"/>
<circle cx="576" cy="110" r="15" fill="white"/>
<circle cx="632" cy="110" r="15" fill="white"/>
<circle cx="688" cy="110" r="15" fill="white"/>
<circle cx="744" cy="110" r="15" fill="white"/>
<circle cx="800" cy="110" r="15" fill="white"/>
<circle cx="856" cy="110" r="15" fill="white"/>
<circle cx="912" cy="110" r="15" fill="white"/>
<circle cx="1024" cy="110" r="15" fill="white"/>
<circle cx="968" cy="110" r="15" fill="white"/>
<circle cx="156" cy="156" r="15" fill="white"/>
<circle cx="212" cy="156" r="15" fill="white"/>
<circle cx="268" cy="156" r="15" fill="white"/>
<circle cx="324" cy="156" r="15" fill="white"/>
<circle cx="380" cy="156" r="15" fill="white"/>
<circle cx="436" cy="156" r="15" fill="white"/>
<circle cx="492" cy="156" r="15" fill="white"/>
<circle cx="548" cy="156" r="15" fill="white"/>
<circle cx="604" cy="156" r="15" fill="white"/>
<circle cx="660" cy="156" r="15" fill="white"/>
<circle cx="716" cy="156" r="15" fill="white"/>
<circle cx="772" cy="156" r="15" fill="white"/>
<circle cx="828" cy="156" r="15" fill="white"/>
<circle cx="884" cy="156" r="15" fill="white"/>
<circle cx="940" cy="156" r="15" fill="white"/>
<circle cx="996" cy="156" r="15" fill="white"/>
<circle cx="1052" cy="156" r="15" fill="white"/>
<circle cx="87" cy="248" r="15" fill="white"/>
<circle cx="143" cy="248" r="15" fill="white"/>
<circle cx="199" cy="248" r="15" fill="white"/>
<circle cx="255" cy="248" r="15" fill="white"/>
<circle cx="311" cy="248" r="15" fill="white"/>
<circle cx="367" cy="248" r="15" fill="white"/>
<circle cx="423" cy="248" r="15" fill="white"/>
<circle cx="479" cy="248" r="15" fill="white"/>
<circle cx="535" cy="248" r="15" fill="white"/>
<circle cx="591" cy="248" r="15" fill="white"/>
<circle cx="647" cy="248" r="15" fill="white"/>
<circle cx="703" cy="248" r="15" fill="white"/>
<circle cx="759" cy="248" r="15" fill="white"/>
<circle cx="815" cy="248" r="15" fill="white"/>
<circle cx="871" cy="248" r="15" fill="white"/>
<circle cx="927" cy="248" r="15" fill="white"/>
<circle cx="1039" cy="248" r="15" fill="white"/>
<circle cx="983" cy="248" r="15" fill="white"/>
<circle cx="171" cy="294" r="15" fill="white"/>
<circle cx="227" cy="294" r="15" fill="white"/>
<circle cx="283" cy="294" r="15" fill="white"/>
<circle cx="339" cy="294" r="15" fill="white"/>
<circle cx="395" cy="294" r="15" fill="white"/>
<circle cx="451" cy="294" r="15" fill="white"/>
<circle cx="507" cy="294" r="15" fill="white"/>
<circle cx="563" cy="294" r="15" fill="white"/>
<circle cx="619" cy="294" r="15" fill="white"/>
<circle cx="675" cy="294" r="15" fill="white"/>
<circle cx="731" cy="294" r="15" fill="white"/>
<circle cx="787" cy="294" r="15" fill="white"/>
<circle cx="843" cy="294" r="15" fill="white"/>
<circle cx="899" cy="294" r="15" fill="white"/>
<circle cx="955" cy="294" r="15" fill="white"/>
<circle cx="1011" cy="294" r="15" fill="white"/>
<circle cx="1067" cy="294" r="15" fill="white"/>
<circle cx="44" cy="386" r="15" fill="white"/>
<circle cx="100" cy="386" r="15" fill="white"/>
<circle cx="156" cy="386" r="15" fill="white"/>
<circle cx="212" cy="386" r="15" fill="white"/>
<circle cx="268" cy="386" r="15" fill="white"/>
<circle cx="324" cy="386" r="15" fill="white"/>
<circle cx="380" cy="386" r="15" fill="white"/>
<circle cx="436" cy="386" r="15" fill="white"/>
<circle cx="492" cy="386" r="15" fill="white"/>
<circle cx="548" cy="386" r="15" fill="white"/>
<circle cx="604" cy="386" r="15" fill="white"/>
<circle cx="660" cy="386" r="15" fill="white"/>
<circle cx="716" cy="386" r="15" fill="white"/>
<circle cx="772" cy="386" r="15" fill="white"/>
<circle cx="828" cy="386" r="15" fill="white"/>
<circle cx="884" cy="386" r="15" fill="white"/>
<circle cx="996" cy="386" r="15" fill="white"/>
<circle cx="940" cy="386" r="15" fill="white"/>
<circle cx="130" cy="432" r="15" fill="white"/>
<circle cx="186" cy="432" r="15" fill="white"/>
<circle cx="242" cy="432" r="15" fill="white"/>
<circle cx="298" cy="432" r="15" fill="white"/>
<circle cx="354" cy="432" r="15" fill="white"/>
<circle cx="410" cy="432" r="15" fill="white"/>
<circle cx="466" cy="432" r="15" fill="white"/>
<circle cx="522" cy="432" r="15" fill="white"/>
<circle cx="578" cy="432" r="15" fill="white"/>
<circle cx="634" cy="432" r="15" fill="white"/>
<circle cx="690" cy="432" r="15" fill="white"/>
<circle cx="746" cy="432" r="15" fill="white"/>
<circle cx="802" cy="432" r="15" fill="white"/>
<circle cx="858" cy="432" r="15" fill="white"/>
<circle cx="914" cy="432" r="15" fill="white"/>
<circle cx="970" cy="432" r="15" fill="white"/>
<circle cx="1082" cy="432" r="15" fill="white"/>
<circle cx="1026" cy="432" r="15" fill="white"/>
<circle cx="160" cy="478" r="15" fill="white"/>
<circle cx="216" cy="478" r="15" fill="white"/>
<circle cx="272" cy="478" r="15" fill="white"/>
<circle cx="328" cy="478" r="15" fill="white"/>
<circle cx="384" cy="478" r="15" fill="white"/>
<circle cx="440" cy="478" r="15" fill="white"/>
<circle cx="496" cy="478" r="15" fill="white"/>
<circle cx="552" cy="478" r="15" fill="white"/>
<circle cx="608" cy="478" r="15" fill="white"/>
<circle cx="664" cy="478" r="15" fill="white"/>
<circle cx="720" cy="478" r="15" fill="white"/>
<circle cx="776" cy="478" r="15" fill="white"/>
<circle cx="832" cy="478" r="15" fill="white"/>
<circle cx="888" cy="478" r="15" fill="white"/>
<circle cx="944" cy="478" r="15" fill="white"/>
<circle cx="1000" cy="478" r="15" fill="white"/>
<circle cx="1056" cy="478" r="15" fill="white"/>
<circle cx="119" cy="202" r="15" fill="white"/>
<circle cx="175" cy="202" r="15" fill="white"/>
<circle cx="231" cy="202" r="15" fill="white"/>
<circle cx="287" cy="202" r="15" fill="white"/>
<circle cx="343" cy="202" r="15" fill="white"/>
<circle cx="399" cy="202" r="15" fill="white"/>
<circle cx="455" cy="202" r="15" fill="white"/>
<circle cx="511" cy="202" r="15" fill="white"/>
<circle cx="567" cy="202" r="15" fill="white"/>
<circle cx="623" cy="202" r="15" fill="white"/>
<circle cx="679" cy="202" r="15" fill="white"/>
<circle cx="735" cy="202" r="15" fill="white"/>
<circle cx="791" cy="202" r="15" fill="white"/>
<circle cx="847" cy="202" r="15" fill="white"/>
<circle cx="903" cy="202" r="15" fill="white"/>
<circle cx="959" cy="202" r="15" fill="white"/>
<circle cx="1071" cy="202" r="15" fill="white"/>
<circle cx="1015" cy="202" r="15" fill="white"/>
<circle cx="184" cy="846" r="15" fill="white"/>
<circle cx="240" cy="846" r="15" fill="white"/>
<circle cx="296" cy="846" r="15" fill="white"/>
<circle cx="352" cy="846" r="15" fill="white"/>
<circle cx="408" cy="846" r="15" fill="white"/>
<circle cx="464" cy="846" r="15" fill="white"/>
<circle cx="520" cy="846" r="15" fill="white"/>
<circle cx="576" cy="846" r="15" fill="white"/>
<circle cx="632" cy="846" r="15" fill="white"/>
<circle cx="688" cy="846" r="15" fill="white"/>
<circle cx="744" cy="846" r="15" fill="white"/>
<circle cx="800" cy="846" r="15" fill="white"/>
<circle cx="856" cy="846" r="15" fill="white"/>
<circle cx="912" cy="846" r="15" fill="white"/>
<circle cx="968" cy="846" r="15" fill="white"/>
<circle cx="1024" cy="846" r="15" fill="white"/>
<circle cx="1080" cy="846" r="15" fill="white"/>
<circle cx="74" cy="524" r="15" fill="white"/>
<circle cx="130" cy="524" r="15" fill="white"/>
<circle cx="186" cy="524" r="15" fill="white"/>
<circle cx="242" cy="524" r="15" fill="white"/>
<circle cx="298" cy="524" r="15" fill="white"/>
<circle cx="354" cy="524" r="15" fill="white"/>
<circle cx="410" cy="524" r="15" fill="white"/>
<circle cx="466" cy="524" r="15" fill="white"/>
<circle cx="522" cy="524" r="15" fill="white"/>
<circle cx="578" cy="524" r="15" fill="white"/>
<circle cx="634" cy="524" r="15" fill="white"/>
<circle cx="690" cy="524" r="15" fill="white"/>
<circle cx="746" cy="524" r="15" fill="white"/>
<circle cx="802" cy="524" r="15" fill="white"/>
<circle cx="858" cy="524" r="15" fill="white"/>
<circle cx="914" cy="524" r="15" fill="white"/>
<circle cx="1026" cy="524" r="15" fill="white"/>
<circle cx="970" cy="524" r="15" fill="white"/>
<circle cx="210" cy="570" r="15" fill="white"/>
<circle cx="266" cy="570" r="15" fill="white"/>
<circle cx="322" cy="570" r="15" fill="white"/>
<circle cx="378" cy="570" r="15" fill="white"/>
<circle cx="434" cy="570" r="15" fill="white"/>
<circle cx="490" cy="570" r="15" fill="white"/>
<circle cx="546" cy="570" r="15" fill="white"/>
<circle cx="602" cy="570" r="15" fill="white"/>
<circle cx="658" cy="570" r="15" fill="white"/>
<circle cx="714" cy="570" r="15" fill="white"/>
<circle cx="770" cy="570" r="15" fill="white"/>
<circle cx="826" cy="570" r="15" fill="white"/>
<circle cx="882" cy="570" r="15" fill="white"/>
<circle cx="938" cy="570" r="15" fill="white"/>
<circle cx="994" cy="570" r="15" fill="white"/>
<circle cx="1050" cy="570" r="15" fill="white"/>
<circle cx="126" cy="616" r="15" fill="white"/>
<circle cx="182" cy="616" r="15" fill="white"/>
<circle cx="238" cy="616" r="15" fill="white"/>
<circle cx="294" cy="616" r="15" fill="white"/>
<circle cx="350" cy="616" r="15" fill="white"/>
<circle cx="406" cy="616" r="15" fill="white"/>
<circle cx="462" cy="616" r="15" fill="white"/>
<circle cx="518" cy="616" r="15" fill="white"/>
<circle cx="574" cy="616" r="15" fill="white"/>
<circle cx="630" cy="616" r="15" fill="white"/>
<circle cx="686" cy="616" r="15" fill="white"/>
<circle cx="742" cy="616" r="15" fill="white"/>
<circle cx="798" cy="616" r="15" fill="white"/>
<circle cx="854" cy="616" r="15" fill="white"/>
<circle cx="910" cy="616" r="15" fill="white"/>
<circle cx="966" cy="616" r="15" fill="white"/>
<circle cx="1078" cy="616" r="15" fill="white"/>
<circle cx="1022" cy="616" r="15" fill="white"/>
<circle cx="210" cy="662" r="15" fill="white"/>
<circle cx="266" cy="662" r="15" fill="white"/>
<circle cx="322" cy="662" r="15" fill="white"/>
<circle cx="378" cy="662" r="15" fill="white"/>
<circle cx="434" cy="662" r="15" fill="white"/>
<circle cx="490" cy="662" r="15" fill="white"/>
<circle cx="546" cy="662" r="15" fill="white"/>
<circle cx="602" cy="662" r="15" fill="white"/>
<circle cx="658" cy="662" r="15" fill="white"/>
<circle cx="714" cy="662" r="15" fill="white"/>
<circle cx="770" cy="662" r="15" fill="white"/>
<circle cx="826" cy="662" r="15" fill="white"/>
<circle cx="882" cy="662" r="15" fill="white"/>
<circle cx="938" cy="662" r="15" fill="white"/>
<circle cx="994" cy="662" r="15" fill="white"/>
<circle cx="1050" cy="662" r="15" fill="white"/>
<circle cx="141" cy="754" r="15" fill="white"/>
<circle cx="197" cy="754" r="15" fill="white"/>
<circle cx="253" cy="754" r="15" fill="white"/>
<circle cx="309" cy="754" r="15" fill="white"/>
<circle cx="365" cy="754" r="15" fill="white"/>
<circle cx="421" cy="754" r="15" fill="white"/>
<circle cx="477" cy="754" r="15" fill="white"/>
<circle cx="533" cy="754" r="15" fill="white"/>
<circle cx="589" cy="754" r="15" fill="white"/>
<circle cx="645" cy="754" r="15" fill="white"/>
<circle cx="701" cy="754" r="15" fill="white"/>
<circle cx="757" cy="754" r="15" fill="white"/>
<circle cx="813" cy="754" r="15" fill="white"/>
<circle cx="869" cy="754" r="15" fill="white"/>
<circle cx="925" cy="754" r="15" fill="white"/>
<circle cx="981" cy="754" r="15" fill="white"/>
<circle cx="1037" cy="754" r="15" fill="white"/>
<circle cx="225" cy="800" r="15" fill="white"/>
<circle cx="281" cy="800" r="15" fill="white"/>
<circle cx="337" cy="800" r="15" fill="white"/>
<circle cx="393" cy="800" r="15" fill="white"/>
<circle cx="449" cy="800" r="15" fill="white"/>
<circle cx="505" cy="800" r="15" fill="white"/>
<circle cx="561" cy="800" r="15" fill="white"/>
<circle cx="617" cy="800" r="15" fill="white"/>
<circle cx="673" cy="800" r="15" fill="white"/>
<circle cx="729" cy="800" r="15" fill="white"/>
<circle cx="785" cy="800" r="15" fill="white"/>
<circle cx="841" cy="800" r="15" fill="white"/>
<circle cx="897" cy="800" r="15" fill="white"/>
<circle cx="953" cy="800" r="15" fill="white"/>
<circle cx="1009" cy="800" r="15" fill="white"/>
<circle cx="1065" cy="800" r="15" fill="white"/>
<circle cx="98" cy="892" r="15" fill="white"/>
<circle cx="154" cy="892" r="15" fill="white"/>
<circle cx="210" cy="892" r="15" fill="white"/>
<circle cx="266" cy="892" r="15" fill="white"/>
<circle cx="322" cy="892" r="15" fill="white"/>
<circle cx="378" cy="892" r="15" fill="white"/>
<circle cx="434" cy="892" r="15" fill="white"/>
<circle cx="490" cy="892" r="15" fill="white"/>
<circle cx="546" cy="892" r="15" fill="white"/>
<circle cx="602" cy="892" r="15" fill="white"/>
<circle cx="658" cy="892" r="15" fill="white"/>
<circle cx="714" cy="892" r="15" fill="white"/>
<circle cx="770" cy="892" r="15" fill="white"/>
<circle cx="826" cy="892" r="15" fill="white"/>
<circle cx="882" cy="892" r="15" fill="white"/>
<circle cx="938" cy="892" r="15" fill="white"/>
<circle cx="1050" cy="892" r="15" fill="white"/>
<circle cx="994" cy="892" r="15" fill="white"/>
<circle cx="173" cy="708" r="15" fill="white"/>
<circle cx="229" cy="708" r="15" fill="white"/>
<circle cx="285" cy="708" r="15" fill="white"/>
<circle cx="341" cy="708" r="15" fill="white"/>
<circle cx="397" cy="708" r="15" fill="white"/>
<circle cx="453" cy="708" r="15" fill="white"/>
<circle cx="509" cy="708" r="15" fill="white"/>
<circle cx="565" cy="708" r="15" fill="white"/>
<circle cx="621" cy="708" r="15" fill="white"/>
<circle cx="677" cy="708" r="15" fill="white"/>
<circle cx="733" cy="708" r="15" fill="white"/>
<circle cx="789" cy="708" r="15" fill="white"/>
<circle cx="845" cy="708" r="15" fill="white"/>
<circle cx="901" cy="708" r="15" fill="white"/>
<circle cx="957" cy="708" r="15" fill="white"/>
<circle cx="1013" cy="708" r="15" fill="white"/>
<circle cx="1069" cy="708" r="15" fill="white"/>
<circle cx="184" cy="846" r="15" fill="white"/>
<circle cx="240" cy="846" r="15" fill="white"/>
<circle cx="296" cy="846" r="15" fill="white"/>
<circle cx="352" cy="846" r="15" fill="white"/>
<circle cx="408" cy="846" r="15" fill="white"/>
<circle cx="464" cy="846" r="15" fill="white"/>
<circle cx="520" cy="846" r="15" fill="white"/>
<circle cx="576" cy="846" r="15" fill="white"/>
<circle cx="632" cy="846" r="15" fill="white"/>
<circle cx="688" cy="846" r="15" fill="white"/>
<circle cx="744" cy="846" r="15" fill="white"/>
<circle cx="800" cy="846" r="15" fill="white"/>
<circle cx="856" cy="846" r="15" fill="white"/>
<circle cx="912" cy="846" r="15" fill="white"/>
<circle cx="968" cy="846" r="15" fill="white"/>
<circle cx="1024" cy="846" r="15" fill="white"/>
<circle cx="1080" cy="846" r="15" fill="white"/>
<circle cx="74" cy="524" r="15" fill="white"/>
<circle cx="130" cy="524" r="15" fill="white"/>
<circle cx="186" cy="524" r="15" fill="white"/>
<circle cx="242" cy="524" r="15" fill="white"/>
<circle cx="298" cy="524" r="15" fill="white"/>
<circle cx="354" cy="524" r="15" fill="white"/>
<circle cx="410" cy="524" r="15" fill="white"/>
<circle cx="466" cy="524" r="15" fill="white"/>
<circle cx="522" cy="524" r="15" fill="white"/>
<circle cx="578" cy="524" r="15" fill="white"/>
<circle cx="634" cy="524" r="15" fill="white"/>
<circle cx="690" cy="524" r="15" fill="white"/>
<circle cx="746" cy="524" r="15" fill="white"/>
<circle cx="802" cy="524" r="15" fill="white"/>
<circle cx="858" cy="524" r="15" fill="white"/>
<circle cx="914" cy="524" r="15" fill="white"/>
<circle cx="1026" cy="524" r="15" fill="white"/>
<circle cx="970" cy="524" r="15" fill="white"/>
<circle cx="210" cy="570" r="15" fill="white"/>
<circle cx="266" cy="570" r="15" fill="white"/>
<circle cx="322" cy="570" r="15" fill="white"/>
<circle cx="378" cy="570" r="15" fill="white"/>
<circle cx="434" cy="570" r="15" fill="white"/>
<circle cx="490" cy="570" r="15" fill="white"/>
<circle cx="546" cy="570" r="15" fill="white"/>
<circle cx="602" cy="570" r="15" fill="white"/>
<circle cx="658" cy="570" r="15" fill="white"/>
<circle cx="714" cy="570" r="15" fill="white"/>
<circle cx="770" cy="570" r="15" fill="white"/>
<circle cx="826" cy="570" r="15" fill="white"/>
<circle cx="882" cy="570" r="15" fill="white"/>
<circle cx="938" cy="570" r="15" fill="white"/>
<circle cx="994" cy="570" r="15" fill="white"/>
<circle cx="1050" cy="570" r="15" fill="white"/>
<circle cx="126" cy="616" r="15" fill="white"/>
<circle cx="182" cy="616" r="15" fill="white"/>
<circle cx="238" cy="616" r="15" fill="white"/>
<circle cx="294" cy="616" r="15" fill="white"/>
<circle cx="350" cy="616" r="15" fill="white"/>
<circle cx="406" cy="616" r="15" fill="white"/>
<circle cx="462" cy="616" r="15" fill="white"/>
<circle cx="518" cy="616" r="15" fill="white"/>
<circle cx="574" cy="616" r="15" fill="white"/>
<circle cx="630" cy="616" r="15" fill="white"/>
<circle cx="686" cy="616" r="15" fill="white"/>
<circle cx="742" cy="616" r="15" fill="white"/>
<circle cx="798" cy="616" r="15" fill="white"/>
<circle cx="854" cy="616" r="15" fill="white"/>
<circle cx="910" cy="616" r="15" fill="white"/>
<circle cx="966" cy="616" r="15" fill="white"/>
<circle cx="1078" cy="616" r="15" fill="white"/>
<circle cx="1022" cy="616" r="15" fill="white"/>
<circle cx="210" cy="662" r="15" fill="white"/>
<circle cx="266" cy="662" r="15" fill="white"/>
<circle cx="322" cy="662" r="15" fill="white"/>
<circle cx="378" cy="662" r="15" fill="white"/>
<circle cx="434" cy="662" r="15" fill="white"/>
<circle cx="490" cy="662" r="15" fill="white"/>
<circle cx="546" cy="662" r="15" fill="white"/>
<circle cx="602" cy="662" r="15" fill="white"/>
<circle cx="658" cy="662" r="15" fill="white"/>
<circle cx="714" cy="662" r="15" fill="white"/>
<circle cx="770" cy="662" r="15" fill="white"/>
<circle cx="826" cy="662" r="15" fill="white"/>
<circle cx="882" cy="662" r="15" fill="white"/>
<circle cx="938" cy="662" r="15" fill="white"/>
<circle cx="994" cy="662" r="15" fill="white"/>
<circle cx="1050" cy="662" r="15" fill="white"/>
<circle cx="141" cy="754" r="15" fill="white"/>
<circle cx="197" cy="754" r="15" fill="white"/>
<circle cx="253" cy="754" r="15" fill="white"/>
<circle cx="309" cy="754" r="15" fill="white"/>
<circle cx="365" cy="754" r="15" fill="white"/>
<circle cx="421" cy="754" r="15" fill="white"/>
<circle cx="477" cy="754" r="15" fill="white"/>
<circle cx="533" cy="754" r="15" fill="white"/>
<circle cx="589" cy="754" r="15" fill="white"/>
<circle cx="645" cy="754" r="15" fill="white"/>
<circle cx="701" cy="754" r="15" fill="white"/>
<circle cx="757" cy="754" r="15" fill="white"/>
<circle cx="813" cy="754" r="15" fill="white"/>
<circle cx="869" cy="754" r="15" fill="white"/>
<circle cx="925" cy="754" r="15" fill="white"/>
<circle cx="981" cy="754" r="15" fill="white"/>
<circle cx="1037" cy="754" r="15" fill="white"/>
<circle cx="225" cy="800" r="15" fill="white"/>
<circle cx="281" cy="800" r="15" fill="white"/>
<circle cx="337" cy="800" r="15" fill="white"/>
<circle cx="393" cy="800" r="15" fill="white"/>
<circle cx="449" cy="800" r="15" fill="white"/>
<circle cx="505" cy="800" r="15" fill="white"/>
<circle cx="561" cy="800" r="15" fill="white"/>
<circle cx="617" cy="800" r="15" fill="white"/>
<circle cx="673" cy="800" r="15" fill="white"/>
<circle cx="729" cy="800" r="15" fill="white"/>
<circle cx="785" cy="800" r="15" fill="white"/>
<circle cx="841" cy="800" r="15" fill="white"/>
<circle cx="897" cy="800" r="15" fill="white"/>
<circle cx="953" cy="800" r="15" fill="white"/>
<circle cx="1009" cy="800" r="15" fill="white"/>
<circle cx="1065" cy="800" r="15" fill="white"/>
<circle cx="98" cy="892" r="15" fill="white"/>
<circle cx="154" cy="892" r="15" fill="white"/>
<circle cx="210" cy="892" r="15" fill="white"/>
<circle cx="266" cy="892" r="15" fill="white"/>
<circle cx="322" cy="892" r="15" fill="white"/>
<circle cx="378" cy="892" r="15" fill="white"/>
<circle cx="434" cy="892" r="15" fill="white"/>
<circle cx="490" cy="892" r="15" fill="white"/>
<circle cx="546" cy="892" r="15" fill="white"/>
<circle cx="602" cy="892" r="15" fill="white"/>
<circle cx="658" cy="892" r="15" fill="white"/>
<circle cx="714" cy="892" r="15" fill="white"/>
<circle cx="770" cy="892" r="15" fill="white"/>
<circle cx="826" cy="892" r="15" fill="white"/>
<circle cx="882" cy="892" r="15" fill="white"/>
<circle cx="938" cy="892" r="15" fill="white"/>
<circle cx="1050" cy="892" r="15" fill="white"/>
<circle cx="994" cy="892" r="15" fill="white"/>
<circle cx="184" cy="938" r="15" fill="white"/>
<circle cx="240" cy="938" r="15" fill="white"/>
<circle cx="296" cy="938" r="15" fill="white"/>
<circle cx="352" cy="938" r="15" fill="white"/>
<circle cx="408" cy="938" r="15" fill="white"/>
<circle cx="464" cy="938" r="15" fill="white"/>
<circle cx="520" cy="938" r="15" fill="white"/>
<circle cx="576" cy="938" r="15" fill="white"/>
<circle cx="632" cy="938" r="15" fill="white"/>
<circle cx="688" cy="938" r="15" fill="white"/>
<circle cx="744" cy="938" r="15" fill="white"/>
<circle cx="800" cy="938" r="15" fill="white"/>
<circle cx="856" cy="938" r="15" fill="white"/>
<circle cx="912" cy="938" r="15" fill="white"/>
<circle cx="968" cy="938" r="15" fill="white"/>
<circle cx="1024" cy="938" r="15" fill="white"/>
<circle cx="1080" cy="938" r="15" fill="white"/>
<circle cx="214" cy="984" r="15" fill="white"/>
<circle cx="270" cy="984" r="15" fill="white"/>
<circle cx="326" cy="984" r="15" fill="white"/>
<circle cx="382" cy="984" r="15" fill="white"/>
<circle cx="438" cy="984" r="15" fill="white"/>
<circle cx="494" cy="984" r="15" fill="white"/>
<circle cx="550" cy="984" r="15" fill="white"/>
<circle cx="606" cy="984" r="15" fill="white"/>
<circle cx="662" cy="984" r="15" fill="white"/>
<circle cx="718" cy="984" r="15" fill="white"/>
<circle cx="774" cy="984" r="15" fill="white"/>
<circle cx="830" cy="984" r="15" fill="white"/>
<circle cx="886" cy="984" r="15" fill="white"/>
<circle cx="942" cy="984" r="15" fill="white"/>
<circle cx="998" cy="984" r="15" fill="white"/>
<circle cx="1054" cy="984" r="15" fill="white"/>
<circle cx="130" cy="1030" r="15" fill="white"/>
<circle cx="186" cy="1030" r="15" fill="white"/>
<circle cx="242" cy="1030" r="15" fill="white"/>
<circle cx="298" cy="1030" r="15" fill="white"/>
<circle cx="354" cy="1030" r="15" fill="white"/>
<circle cx="410" cy="1030" r="15" fill="white"/>
<circle cx="466" cy="1030" r="15" fill="white"/>
<circle cx="522" cy="1030" r="15" fill="white"/>
<circle cx="578" cy="1030" r="15" fill="white"/>
<circle cx="634" cy="1030" r="15" fill="white"/>
<circle cx="690" cy="1030" r="15" fill="white"/>
<circle cx="746" cy="1030" r="15" fill="white"/>
<circle cx="802" cy="1030" r="15" fill="white"/>
<circle cx="858" cy="1030" r="15" fill="white"/>
<circle cx="914" cy="1030" r="15" fill="white"/>
<circle cx="970" cy="1030" r="15" fill="white"/>
<circle cx="1082" cy="1030" r="15" fill="white"/>
<circle cx="1026" cy="1030" r="15" fill="white"/>
<circle cx="158" cy="1076" r="15" fill="white"/>
<circle cx="214" cy="1076" r="15" fill="white"/>
<circle cx="270" cy="1076" r="15" fill="white"/>
<circle cx="326" cy="1076" r="15" fill="white"/>
<circle cx="382" cy="1076" r="15" fill="white"/>
<circle cx="438" cy="1076" r="15" fill="white"/>
<circle cx="494" cy="1076" r="15" fill="white"/>
<circle cx="550" cy="1076" r="15" fill="white"/>
<circle cx="606" cy="1076" r="15" fill="white"/>
<circle cx="662" cy="1076" r="15" fill="white"/>
<circle cx="718" cy="1076" r="15" fill="white"/>
<circle cx="774" cy="1076" r="15" fill="white"/>
<circle cx="830" cy="1076" r="15" fill="white"/>
<circle cx="886" cy="1076" r="15" fill="white"/>
<circle cx="942" cy="1076" r="15" fill="white"/>
<circle cx="998" cy="1076" r="15" fill="white"/>
<circle cx="1054" cy="1076" r="15" fill="white"/>
<circle cx="173" cy="708" r="15" fill="white"/>
<circle cx="229" cy="708" r="15" fill="white"/>
<circle cx="285" cy="708" r="15" fill="white"/>
<circle cx="341" cy="708" r="15" fill="white"/>
<circle cx="397" cy="708" r="15" fill="white"/>
<circle cx="453" cy="708" r="15" fill="white"/>
<circle cx="509" cy="708" r="15" fill="white"/>
<circle cx="565" cy="708" r="15" fill="white"/>
<circle cx="621" cy="708" r="15" fill="white"/>
<circle cx="677" cy="708" r="15" fill="white"/>
<circle cx="733" cy="708" r="15" fill="white"/>
<circle cx="789" cy="708" r="15" fill="white"/>
<circle cx="845" cy="708" r="15" fill="white"/>
<circle cx="901" cy="708" r="15" fill="white"/>
<circle cx="957" cy="708" r="15" fill="white"/>
<circle cx="1013" cy="708" r="15" fill="white"/>
<circle cx="1069" cy="708" r="15" fill="white"/>
<g filter="url(#filter0_d_102_2)">
<circle cx="157.5" cy="160.5" r="157.5" fill="#2E4BAE"/>
</g>
<path d="M315 160.5C315 247.485 244.485 318 157.5 318C70.5148 318 290 247.485 290 160.5C290 73.5152 70.5148 3 157.5 3C244.485 3 315 73.5152 315 160.5Z" fill="#0A2060"/>
<path d="M1058.97 1064.27L1045.54 794.091C1044.88 780.865 1030.34 773.133 1019.01 779.984L787.512 919.931C775.884 926.96 776.353 943.98 788.349 950.358L1033.28 1080.59C1045.27 1086.97 1059.64 1077.84 1058.97 1064.27Z" stroke="#098389" stroke-width="15"/>
<rect x="7" y="698.1" width="311" height="311" rx="10" transform="rotate(-42 7 698.1)" fill="#00ABD3"/>
<path d="M751.444 -0.880172L1080.89 230L688.675 396.484L751.444 -0.880172Z" fill="#D8EAEE"/>
</g>
<defs>
<filter id="filter0_d_102_2" x="-4" y="3" width="323" height="323" filterUnits="userSpaceOnUse" color-interpolation-filters="sRGB">
<feFlood flood-opacity="0" result="BackgroundImageFix"/>
<feColorMatrix in="SourceAlpha" type="matrix" values="0 0 0 0 0 0 0 0 0 0 0 0 0 0 0 0 0 0 127 0" result="hardAlpha"/>
<feOffset dy="4"/>
<feGaussianBlur stdDeviation="2"/>
<feComposite in2="hardAlpha" operator="out"/>
<feColorMatrix type="matrix" values="0 0 0 0 0 0 0 0 0 0 0 0 0 0 0 0 0 0 0.25 0"/>
<feBlend mode="normal" in2="BackgroundImageFix" result="effect1_dropShadow_102_2"/>
<feBlend mode="normal" in="SourceGraphic" in2="effect1_dropShadow_102_2" result="shape"/>
</filter>
<clipPath id="clip0_102_2">
<rect width="1075" height="1097" fill="white" transform="matrix(-1 0 0 1 1075 0)"/>
</clipPath>
</defs>
</svg>
