<svg width="345" height="60" viewBox="0 0 345 60" fill="none" xmlns="http://www.w3.org/2000/svg">
<g clip-path="url(#clip0_609_2)">
<path d="M25.2694 41.3367L23.6985 47.8444C26.3888 47.8412 28.3763 45.8502 29.3909 41.1058L25.2694 41.3367Z" fill="#096868"/>
<path d="M22.3075 41.7182L20.7366 48.2259C23.4269 48.2226 25.4144 46.2316 26.429 41.4873L22.3075 41.7182Z" fill="#098389"/>
<path d="M21.4608 19.4051C21.4066 18.232 21.3621 14.1466 24.2256 10.2389C27.1333 6.27126 31.1238 5.10056 32.2491 4.8114C31.0151 6.3032 29.3871 8.63113 28.2053 11.8034C27.3088 14.2101 26.9385 16.3799 26.7861 18.0351C26.6827 18.2215 25.8272 19.7033 24.053 19.9737C22.7294 20.1753 21.726 19.5756 21.4608 19.4051Z" fill="#2E4BAE"/>
<path d="M32.2491 4.8114C30.8595 5.70349 28.5934 7.42058 26.7492 10.3157C24.1983 14.32 23.9308 18.2598 23.9182 19.9913C24.2147 19.9544 24.5812 19.8738 24.9729 19.7004C26.0173 19.2378 26.5675 18.4125 26.7858 18.0348C27.0697 14.1694 28.3344 9.93044 32.2491 4.8114Z" fill="#0A2060"/>
<path d="M26.9973 40.611C28.1484 43.8225 27.8334 46.9834 26.429 50.1064C29.5362 51.2549 32.3909 49.2864 35.046 44.8599L36.8712 34.8067L26.9973 40.611Z" fill="#A3AEAF"/>
<path d="M34.5307 45.6835C34.1657 43.3268 33.6088 41.1969 34.9631 36.8059L35.9323 36.058L34.8922 45.1122C34.7789 45.2953 34.6602 45.4866 34.5307 45.6835Z" fill="#A3AEAF"/>
<path d="M19.6968 50.0959C21.2288 49.7007 21.9436 47.3824 23.1568 39.2982C23.789 35.0865 24.5786 29.4993 25.3816 22.8387L18.9489 21.2227C18.142 22.2683 17.0434 23.8028 15.9269 25.7704C14.5166 28.2562 12.8393 31.2123 12.2449 35.2389C11.9578 37.1842 11.5687 39.8191 12.6058 42.825C13.9081 46.5987 17.3689 50.6965 19.6968 50.0959Z" fill="#CEDDE0"/>
<path d="M27.4476 42.1904C27.4086 41.8166 27.3577 41.4498 27.2964 41.0897C26.0777 33.9448 20.5476 28.8934 15.9266 25.7707C15.7335 26.107 15.5402 26.4498 15.3474 26.799C15.1329 27.1875 14.9255 27.5722 14.7248 27.9521C14.7078 28.5416 14.7336 29.2301 14.8496 29.9894C15.0579 31.3544 15.4825 32.4583 15.8668 33.2508C14.9501 34.3749 14.7073 35.9018 15.2384 37.2302C16.0039 39.1441 17.9554 39.5909 18.1107 39.6237C18.0831 39.8016 17.8918 41.1891 18.8586 42.1969C19.7645 43.1411 21.309 43.3576 22.6215 42.6662C23.3153 42.7172 24.1488 42.7271 25.0848 42.6331C25.9956 42.5414 26.7908 42.3721 27.4476 42.1904Z" fill="#A3AEAF"/>
<path d="M24.3644 18.2607C23.2368 17.0971 21.8534 16.6263 20.1457 17.0341C18.174 17.5573 16.8246 18.9929 16.0166 21.223C16.0872 23.6007 15.4424 25.3658 12.3363 25.0228C13.3555 25.8141 14.4099 26.499 15.9266 25.7707C15.329 29.3314 15.8601 31.7912 17.6021 33.0712C18.3202 32.3707 19.0383 31.6699 19.7563 30.9694C19.7903 29.2342 20.0552 26.5746 21.2464 23.5954C22.1883 21.2402 23.397 19.4646 24.3644 18.2607Z" fill="#098389"/>
<path d="M24.3644 18.2607C23.3138 19.2246 21.5393 21.1057 20.332 24.0184C19.0388 27.1385 19.0333 29.9053 19.1311 31.3494C20.2473 30.8062 21.3635 30.263 22.4795 29.7199L25.0227 17.8233C24.7634 17.9689 24.5042 18.1148 24.2449 18.2604" fill="#088D9B"/>
<path d="M22.2134 29.5066C21.4356 29.8187 20.2933 30.3727 19.1308 31.3497C17.8063 32.463 16.2281 33.7895 16.2456 35.6599C16.2658 37.829 18.4183 39.2663 18.7391 39.4743C18.6992 39.9278 18.6954 40.7956 19.2477 41.4489C19.8711 42.1866 20.9079 42.3009 22.0901 42.2566C26.0577 42.1084 29.53 40.2533 30.7845 39.5435C32.0314 38.838 33.6913 37.7903 35.5121 36.2912C35.6844 36.1494 35.8578 36.0038 36.0327 35.8538L42.0468 31.0966L36.2422 19.3081L27.0866 20.8641C25.4624 23.7445 23.8379 26.6256 22.2134 29.5066Z" fill="#D8EAEE"/>
<path d="M22.2135 29.5066C22.1326 30.2212 22.0517 30.9357 21.9706 31.65C22.519 31.4379 23.2834 31.0626 24.0351 30.3935C25.3942 29.1832 25.8987 27.7359 26.085 27.0653C25.8354 28.0052 25.5861 28.945 25.3365 29.8849C26.1422 29.3095 27.3386 28.2967 28.3289 26.7003C29.8271 24.285 29.9932 21.9223 29.9997 20.8342C27.4046 23.7246 24.8092 26.6156 22.2135 29.5066Z" fill="#BCCCCE"/>
<path d="M26.9973 40.611C27.302 41.4636 27.5071 42.3164 27.6125 43.1689C32.8942 40.4812 34.9552 38.2011 35.9326 36.0577V35.0607L26.9973 40.611Z" fill="#A3AEAF"/>
<path d="M30.827 16.4056C27.3228 16.3631 25.7196 17.3947 24.9052 18.3717C23.6853 19.8351 23.9773 21.4848 23.312 25.1484C22.8427 27.7324 22.1738 29.7952 21.6714 31.1563C23.5944 30.5015 25.2386 29.0601 26.4286 26.339C27.8949 23.0279 29.3609 19.7168 30.827 16.4056Z" fill="#08A1BA"/>
<path d="M18.7394 39.474C20.8449 39.4966 23.5982 39.2883 26.6712 38.3918C32.8191 36.5982 36.8507 33.0413 38.8373 30.9987C38.7096 31.9787 38.5818 32.9587 38.4541 33.9389C37.6517 34.6558 34.8063 37.1575 31.7349 39.0055C30.1771 39.9428 28.7041 40.626 27.7687 40.9904C27.0248 41.2802 26.2039 41.5359 26.2039 41.5359C25.7305 41.6833 25.3136 41.8119 24.7388 41.9329C24.2894 42.0272 23.9545 42.0726 23.619 42.1175C22.8371 42.2218 22.2488 42.2856 21.4774 42.2628C20.6589 42.2385 20.2572 42.126 19.9235 41.9616C19.8263 41.9136 19.6985 41.85 19.5485 41.7345C18.9828 41.2989 18.8205 40.681 18.7725 40.4871C18.6729 40.0875 18.6945 39.7315 18.7394 39.474Z" fill="#BCCCCE"/>
<path d="M21.6714 36.542C22.6432 36.116 23.474 35.5942 23.9155 34.8067L24.2445 35.4052C23.4787 36.1315 22.5986 36.4254 21.6714 36.542Z" fill="#BCCCCE"/>
<path d="M25.0227 29.7202C27.7054 27.2806 30.0404 24.6638 30 20.8339L30.827 16.4056C29.637 16.8366 28.1144 17.6241 27.3114 19.1434C26.579 20.5292 26.8784 21.7034 26.7372 23.6461C26.6291 25.1326 26.2517 27.2235 25.0227 29.7202Z" fill="#00ABD3"/>
<path d="M33.5156 21.0943C32.9118 23.6642 32.8564 25.8867 33.849 27.4461C34.5659 26.7946 34.9447 26.0654 35.0168 25.2653L35.531 26.8004C35.5907 28.9576 36.1254 31.042 37.0204 33.0711L37.4353 32.1137L36.3023 21.7614L33.5156 21.0943Z" fill="#BCCCCE"/>
<path d="M30.8271 16.4057C29.0751 14.598 26.6514 13.7953 22.6664 15.3284C21.402 15.2183 20.0602 14.4454 18.5977 12.6357C19.1678 18.411 28.6128 20.4237 30.8271 16.4057Z" fill="#088D9B"/>
<path d="M35.4573 17.4377L35.3604 19.9649C36.4886 20.0478 37.3991 20.0756 38.0229 20.0856C38.8388 20.0988 39.1892 20.0818 39.6436 20.2564C40.473 20.5749 40.9669 21.2689 41.2397 21.7608C42.3863 24.8375 43.5333 27.9146 44.68 30.9914C46.262 31.7897 47.6533 31.5026 48.8314 29.9997C47.4315 30.372 46.3786 30.0266 45.7121 28.882C44.4064 24.6764 46.2345 19.1077 35.4573 17.4377Z" fill="#088D9B"/>
<path d="M36.3299 19.4018C35.4225 19.9309 39.8985 25.5451 38.6962 30.9767C38.042 33.9313 36.2962 33.919 35.2494 38.0771C34.7692 39.9852 34.6573 42.0345 34.8545 44.6897C35.1184 48.2437 36.8346 52.2577 38.9056 52.4595C40.0043 52.5667 40.9678 51.578 42.6383 49.8641C43.5416 48.9374 45.087 47.3522 46.0265 44.9794C47.1345 42.1816 46.8659 39.6331 46.4645 37.0042C45.0706 27.8789 42.1977 18.5408 40.3986 18.8012C39.8411 18.8818 39.6641 19.8439 38.6106 20.0244C37.4294 20.2265 36.7131 19.1786 36.3299 19.4018Z" fill="#CEDDE0"/>
<path d="M35.5942 17.4595C35.3393 19.6339 35.2134 22.4604 35.6024 25.7183C35.9531 28.6547 36.6263 31.1382 37.2972 33.0712C37.9667 32.4158 39.2847 30.9196 39.4886 28.7909C39.6061 27.5654 39.3196 26.4908 39.1239 25.7569C38.7738 24.4441 38.2846 23.5553 37.9778 22.9731C37.333 21.7485 36.474 19.9412 35.5942 17.4595Z" fill="#08A1BA"/>
<path d="M30 20.8339C29.9458 19.6608 29.9013 15.5754 32.7648 11.6678C35.6725 7.7001 39.663 6.52939 40.7883 6.24023C39.5543 7.73203 37.9263 10.06 36.7444 13.2322C35.848 15.639 35.4776 17.8087 35.3253 19.464C35.2219 19.6503 34.3664 21.1321 32.5922 21.4025C31.2686 21.6041 30.2654 21.0044 30 20.8339Z" fill="#2E4BAE"/>
<path d="M40.7883 6.24023C39.3987 7.13232 37.1326 8.84941 35.2884 11.7445C32.7375 15.7488 32.47 19.6887 32.4574 21.4201C32.7539 21.3832 33.1204 21.3026 33.5121 21.1292C34.5565 20.6666 35.1067 19.8413 35.325 19.4637C35.6089 15.5982 36.8736 11.3593 40.7883 6.24023Z" fill="#0A2060"/>
<path d="M35.5942 17.4595C35.0413 17.9909 33.9339 19.2103 33.5152 21.0946C32.7313 24.624 35.0542 27.3817 35.3448 27.7157C35.6059 26.5386 35.8247 25.1736 35.922 23.6502C36.0764 21.2329 35.8789 19.1276 35.5942 17.4595Z" fill="#00ABD3"/>
<path d="M82.92 19.54H77.88V31.6L66.93 19.54H62.28V40H67.35V27.34L78.66 40H82.92V19.54ZM91.2253 26.17H87.0553V40H91.2253V26.17ZM89.2453 19.24C87.9553 19.24 86.8453 20.26 86.8453 21.61C86.8453 22.96 87.9253 24.01 89.2453 24.01C90.5353 24.01 91.6153 22.96 91.6153 21.61C91.6153 20.26 90.5353 19.24 89.2453 19.24ZM107.052 36.22C105.372 36.82 104.352 37.18 103.062 37.18C100.272 37.18 99.012 35.11 99.012 33.1C99.012 31.51 99.912 29.11 103.302 29.11C104.772 29.11 106.152 29.68 106.842 30.04V26.8C105.342 26.23 103.512 25.9 102.192 25.9C98.352 25.9 94.362 28.27 94.362 33.13C94.362 37.78 97.872 40.27 102.372 40.27C104.532 40.27 106.332 39.61 107.052 39.34V36.22ZM123.794 26.17H119.414V35.29C118.244 37.09 117.014 37.24 116.474 37.24C114.374 37.24 114.374 35.23 114.374 33.55V26.17H109.994V34.81C109.994 35.56 109.994 36.37 110.294 37.21C110.804 38.53 112.244 40.27 115.034 40.27C115.904 40.27 117.914 40.15 119.414 38.02V40H123.794V26.17ZM141.284 26.17H136.904V35.29C135.734 37.09 134.504 37.24 133.964 37.24C131.864 37.24 131.864 35.23 131.864 33.55V26.17H127.484V34.81C127.484 35.56 127.484 36.37 127.784 37.21C128.294 38.53 129.734 40.27 132.524 40.27C133.394 40.27 135.404 40.15 136.904 38.02V40H141.284V26.17ZM158.775 26.17H154.395V35.29C153.225 37.09 151.995 37.24 151.455 37.24C149.355 37.24 149.355 35.23 149.355 33.55V26.17H144.975V34.81C144.975 35.56 144.975 36.37 145.275 37.21C145.785 38.53 147.225 40.27 150.015 40.27C150.885 40.27 152.895 40.15 154.395 38.02V40H158.775V26.17ZM172.005 26.17H167.025V21.82H166.425L160.635 28.36V29.17H162.615V34.18C162.615 36.25 162.795 37.27 163.455 38.2C164.475 39.61 166.215 40.27 167.955 40.27C169.905 40.27 171.225 39.7 172.005 39.4V36.25C171.075 36.7 170.265 37.06 169.095 37.06C168.645 37.06 167.385 36.94 167.145 35.56C167.025 34.84 167.025 34.36 167.025 32.2V29.17H172.005V26.17ZM183.84 46.9H187.11V19.27H183.84V46.9ZM215.657 19.54H198.557V22.12H205.577V40H208.517V22.12H215.657V19.54ZM224.852 37.6C224.252 38.05 223.712 38.32 223.442 38.32C223.112 38.32 222.932 38.14 222.932 37.63V30.7C222.932 27.64 220.772 26.26 218.042 26.26C216.092 26.26 214.622 26.86 213.572 28.09V31C214.862 29.47 216.362 28.78 217.832 28.78C219.452 28.78 220.262 29.47 220.262 31.15V31.87L217.892 32.71C215.732 33.49 213.302 34.3 213.302 36.97C213.302 38.71 214.622 40.27 216.602 40.27C217.832 40.27 219.062 39.82 220.232 38.89C220.472 39.85 221.102 40.27 222.272 40.27C223.112 40.27 223.622 40.03 224.852 39.22V37.6ZM220.262 37.27C219.542 37.96 218.762 38.38 217.922 38.38C216.812 38.38 216.002 37.6 216.002 36.49C216.002 34.9 217.982 34.12 220.262 33.34V37.27ZM239.035 26.53H235.855L229.885 33.13L236.635 40H240.205L233.275 33.13L239.035 26.53ZM229.765 19.54H227.065V40H229.765V19.54ZM252.011 37.6C251.411 38.05 250.871 38.32 250.601 38.32C250.271 38.32 250.091 38.14 250.091 37.63V30.7C250.091 27.64 247.931 26.26 245.201 26.26C243.251 26.26 241.781 26.86 240.731 28.09V31C242.021 29.47 243.521 28.78 244.991 28.78C246.611 28.78 247.421 29.47 247.421 31.15V31.87L245.051 32.71C242.891 33.49 240.461 34.3 240.461 36.97C240.461 38.71 241.781 40.27 243.761 40.27C244.991 40.27 246.221 39.82 247.391 38.89C247.631 39.85 248.261 40.27 249.431 40.27C250.271 40.27 250.781 40.03 252.011 39.22V37.6ZM247.421 37.27C246.701 37.96 245.921 38.38 245.081 38.38C243.971 38.38 243.161 37.6 243.161 36.49C243.161 34.9 245.141 34.12 247.421 33.34V37.27ZM254.133 26.53V40H256.803V32.95C256.803 29.89 258.993 28.81 259.983 28.81C261.033 28.81 262.233 29.8 262.563 30.13L263.973 27.79C262.413 26.29 261.213 26.26 260.823 26.26C258.933 26.26 257.673 28.27 256.803 29.62V26.53H254.133ZM277.076 40V26.53H274.376V36.16C273.566 37.3 272.426 38.05 271.166 38.05C268.436 38.05 268.436 35.74 268.436 34.21V26.53H265.736V34.21C265.736 36.67 266.066 37.45 266.486 38.11C267.596 39.97 269.456 40.27 270.296 40.27C271.556 40.27 273.146 39.64 274.376 38.29V40H277.076ZM288.626 27.37C287.996 27.04 286.556 26.26 284.546 26.26C281.966 26.26 280.256 27.79 280.256 29.77C280.256 32.02 282.206 33.22 284.426 34.45C285.686 35.14 286.496 35.59 286.496 36.55C286.496 37.45 285.296 37.93 284.456 37.93C283.736 37.93 282.086 37.48 280.166 36.16V39.04C281.516 39.7 282.776 40.27 284.666 40.27C288.326 40.27 289.286 37.72 289.286 36.46C289.286 34.66 287.846 33.28 285.926 32.23C283.946 31.12 283.016 30.64 283.016 29.77C283.016 29.26 283.466 28.57 284.726 28.57C285.986 28.57 287.126 29.08 288.626 30.01V27.37ZM294.979 19.54H292.309V40H294.979V30.34C296.149 29.02 297.079 28.36 298.369 28.36C299.179 28.36 300.019 28.81 300.499 29.59C300.709 29.95 300.979 30.58 300.979 31.66V40H303.649V32.32C303.649 31 303.499 29.71 303.139 28.81C302.569 27.46 301.129 26.26 299.119 26.26C297.529 26.26 296.029 27.04 294.979 28.3V19.54ZM308.749 20.86C307.849 20.86 307.189 21.67 307.189 22.42C307.189 23.08 307.729 24.01 308.749 24.01C309.619 24.01 310.339 23.26 310.339 22.42C310.339 21.58 309.649 20.86 308.749 20.86ZM310.099 26.53H307.429V40H310.099V26.53Z" fill="white"/>
</g>
<defs>
<clipPath id="clip0_609_2">
<rect width="345" height="60" fill="white"/>
</clipPath>
</defs>
</svg>
